%TF.GenerationSoftware,KiCad,Pcbnew,7.0.1*%
%TF.CreationDate,2023-09-03T17:39:56-04:00*%
%TF.ProjectId,syzygy-breakout-flash-1V8,73797a79-6779-42d6-9272-65616b6f7574,r1.0*%
%TF.SameCoordinates,PX66851e0PY4d70380*%
%TF.FileFunction,Copper,L3,Inr*%
%TF.FilePolarity,Positive*%
%FSLAX46Y46*%
G04 Gerber Fmt 4.6, Leading zero omitted, Abs format (unit mm)*
G04 Created by KiCad (PCBNEW 7.0.1) date 2023-09-03 17:39:56*
%MOMM*%
%LPD*%
G01*
G04 APERTURE LIST*
%TA.AperFunction,ComponentPad*%
%ADD10R,1.700000X1.700000*%
%TD*%
%TA.AperFunction,ComponentPad*%
%ADD11O,1.700000X1.700000*%
%TD*%
%TA.AperFunction,ComponentPad*%
%ADD12C,6.200000*%
%TD*%
%TA.AperFunction,ViaPad*%
%ADD13C,0.550000*%
%TD*%
G04 APERTURE END LIST*
D10*
X40534000Y-34427000D03*
D11*
X40534000Y-36967000D03*
D10*
X30120000Y-50180000D03*
D11*
X30120000Y-52720000D03*
X30120000Y-55260000D03*
X30120000Y-57800000D03*
X30120000Y-60340000D03*
X30120000Y-62880000D03*
X30120000Y-65420000D03*
X30120000Y-67960000D03*
X30120000Y-70500000D03*
X30120000Y-73040000D03*
X30120000Y-75580000D03*
X30120000Y-78120000D03*
X30120000Y-80660000D03*
X30120000Y-83200000D03*
D10*
X36298000Y-19892000D03*
D11*
X36298000Y-22432000D03*
X36298000Y-24972000D03*
X36298000Y-27512000D03*
D10*
X32368300Y-19864400D03*
D11*
X32368300Y-22404400D03*
X32368300Y-24944400D03*
D10*
X14877200Y-83200000D03*
D11*
X14877200Y-80660000D03*
X14877200Y-78120000D03*
X14877200Y-75580000D03*
X14877200Y-73040000D03*
X14877200Y-70500000D03*
X14877200Y-67960000D03*
X14877200Y-65420000D03*
X14877200Y-62880000D03*
X14877200Y-60340000D03*
X14877200Y-57800000D03*
X14877200Y-55260000D03*
X14877200Y-52720000D03*
X14877200Y-50180000D03*
D10*
X38248000Y-50180000D03*
D11*
X38248000Y-52720000D03*
X38248000Y-55260000D03*
X38248000Y-57800000D03*
X38248000Y-60340000D03*
X38248000Y-62880000D03*
X38248000Y-65420000D03*
X38248000Y-67960000D03*
X38248000Y-70500000D03*
X38248000Y-73040000D03*
X38248000Y-75580000D03*
X38248000Y-78120000D03*
X38248000Y-80660000D03*
X38248000Y-83200000D03*
D10*
X6749200Y-83290400D03*
D11*
X6749200Y-80750400D03*
X6749200Y-78210400D03*
X6749200Y-75670400D03*
X6749200Y-73130400D03*
X6749200Y-70590400D03*
X6749200Y-68050400D03*
X6749200Y-65510400D03*
X6749200Y-62970400D03*
X6749200Y-60430400D03*
X6749200Y-57890400D03*
X6749200Y-55350400D03*
X6749200Y-52810400D03*
X6749200Y-50270400D03*
D12*
X39482000Y-9286000D03*
X5482000Y-9286000D03*
D13*
X3548800Y-19993600D03*
X3860000Y-5260000D03*
X3450000Y-3698000D03*
X5885600Y-13897600D03*
X1313600Y-20196800D03*
X17772800Y-10189200D03*
X31844400Y-8512800D03*
X13610000Y-8541873D03*
X1110400Y-30356800D03*
X2634400Y-14558000D03*
X7936972Y-5476000D03*
X26837927Y-8742102D03*
X11731000Y-7083100D03*
X5736000Y-650000D03*
X4339000Y-3698000D03*
X11070000Y-9540000D03*
X15442000Y-7563700D03*
X18026800Y-14913600D03*
X12437990Y-42041300D03*
X14572400Y-8309600D03*
X16096400Y-8512800D03*
X12946800Y-42498500D03*
X19144400Y-14964400D03*
X22446400Y-40466000D03*
X27120000Y-43209200D03*
X16083500Y-9248415D03*
X13505600Y-43006000D03*
X23056000Y-40008800D03*
X20058800Y-14710400D03*
X25646800Y-42599600D03*
X16150000Y-3952000D03*
X14013600Y-43514000D03*
X17874400Y-8258800D03*
X21300535Y-14891065D03*
X23767200Y-39602400D03*
X14572400Y-44022000D03*
X18890400Y-8258800D03*
X24427600Y-40567600D03*
X22046105Y-14856695D03*
X26050935Y-43712965D03*
X20516000Y-8309600D03*
X15086400Y-44524000D03*
X25240400Y-44580800D03*
X22751200Y-14761200D03*
X15557645Y-45009369D03*
X21328800Y-8055600D03*
X22090800Y-8055600D03*
X15994800Y-45546000D03*
X32098400Y-45590300D03*
X22903600Y-13948400D03*
X22903600Y-8055600D03*
X23665600Y-8055600D03*
X34376636Y-46593300D03*
X24478400Y-13948400D03*
X24478400Y-8055600D03*
X25291200Y-13948400D03*
X35603600Y-47094800D03*
X25291200Y-8055600D03*
X26053200Y-13948400D03*
X36822800Y-47628800D03*
X26104000Y-8004800D03*
X26852563Y-13934963D03*
X26866000Y-8004800D03*
X23716400Y-13948400D03*
X33165200Y-46091800D03*
X29358000Y-3190000D03*
X7412000Y-3190000D03*
X9546000Y-142000D03*
X12265000Y-6610300D03*
X3450000Y-650000D03*
X24986400Y-40148175D03*
X29666500Y-8512800D03*
X27729600Y-42548800D03*
X31031600Y-45088800D03*
X30168000Y-7801600D03*
X25646800Y-39704000D03*
%TA.AperFunction,Conductor*%
G36*
X44218000Y856887D02*
G01*
X44263387Y811500D01*
X44280000Y749500D01*
X44280000Y-88790500D01*
X44263387Y-88852500D01*
X44218000Y-88897887D01*
X44156000Y-88914500D01*
X82000Y-88914500D01*
X20000Y-88897887D01*
X-25387Y-88852500D01*
X-42000Y-88790500D01*
X-42000Y-84155221D01*
X5748700Y-84155221D01*
X5757433Y-84199123D01*
X5790695Y-84248904D01*
X5840476Y-84282166D01*
X5840478Y-84282167D01*
X5873477Y-84288731D01*
X5884379Y-84290900D01*
X5884380Y-84290900D01*
X7614020Y-84290900D01*
X7614021Y-84290900D01*
X7622753Y-84289162D01*
X7657922Y-84282167D01*
X7707704Y-84248904D01*
X7740967Y-84199122D01*
X7749700Y-84155220D01*
X7749700Y-84064821D01*
X13876700Y-84064821D01*
X13885433Y-84108723D01*
X13918695Y-84158504D01*
X13968476Y-84191766D01*
X13968478Y-84191767D01*
X14001477Y-84198331D01*
X14012379Y-84200500D01*
X14012380Y-84200500D01*
X15742020Y-84200500D01*
X15742021Y-84200500D01*
X15750754Y-84198762D01*
X15785922Y-84191767D01*
X15835704Y-84158504D01*
X15868967Y-84108722D01*
X15877700Y-84064820D01*
X15877700Y-83199999D01*
X29114659Y-83199999D01*
X29133976Y-83396133D01*
X29191185Y-83584726D01*
X29191186Y-83584727D01*
X29284090Y-83758538D01*
X29409117Y-83910883D01*
X29561462Y-84035910D01*
X29735273Y-84128814D01*
X29923868Y-84186024D01*
X30120000Y-84205341D01*
X30316132Y-84186024D01*
X30504727Y-84128814D01*
X30678538Y-84035910D01*
X30830883Y-83910883D01*
X30955910Y-83758538D01*
X31048814Y-83584727D01*
X31106024Y-83396132D01*
X31125341Y-83200000D01*
X31125341Y-83199999D01*
X37242659Y-83199999D01*
X37261976Y-83396133D01*
X37319185Y-83584726D01*
X37319186Y-83584727D01*
X37412090Y-83758538D01*
X37537117Y-83910883D01*
X37689462Y-84035910D01*
X37863273Y-84128814D01*
X38051868Y-84186024D01*
X38248000Y-84205341D01*
X38444132Y-84186024D01*
X38632727Y-84128814D01*
X38806538Y-84035910D01*
X38958883Y-83910883D01*
X39083910Y-83758538D01*
X39176814Y-83584727D01*
X39234024Y-83396132D01*
X39253341Y-83200000D01*
X39234024Y-83003868D01*
X39176814Y-82815273D01*
X39083910Y-82641462D01*
X38958883Y-82489117D01*
X38806538Y-82364090D01*
X38752451Y-82335180D01*
X38632726Y-82271185D01*
X38444133Y-82213976D01*
X38248000Y-82194659D01*
X38051866Y-82213976D01*
X37863273Y-82271185D01*
X37689463Y-82364089D01*
X37537117Y-82489117D01*
X37412089Y-82641463D01*
X37319185Y-82815273D01*
X37261976Y-83003866D01*
X37242659Y-83199999D01*
X31125341Y-83199999D01*
X31106024Y-83003868D01*
X31048814Y-82815273D01*
X30955910Y-82641462D01*
X30830883Y-82489117D01*
X30678538Y-82364090D01*
X30624451Y-82335180D01*
X30504726Y-82271185D01*
X30316133Y-82213976D01*
X30120000Y-82194659D01*
X29923866Y-82213976D01*
X29735273Y-82271185D01*
X29561463Y-82364089D01*
X29409117Y-82489117D01*
X29284089Y-82641463D01*
X29191185Y-82815273D01*
X29133976Y-83003866D01*
X29114659Y-83199999D01*
X15877700Y-83199999D01*
X15877700Y-82335180D01*
X15868967Y-82291278D01*
X15868966Y-82291276D01*
X15835704Y-82241495D01*
X15785923Y-82208233D01*
X15742021Y-82199500D01*
X15742020Y-82199500D01*
X14012380Y-82199500D01*
X14012379Y-82199500D01*
X13968476Y-82208233D01*
X13918695Y-82241495D01*
X13885433Y-82291276D01*
X13876700Y-82335179D01*
X13876700Y-84064821D01*
X7749700Y-84064821D01*
X7749700Y-82425580D01*
X7740967Y-82381678D01*
X7740966Y-82381676D01*
X7707704Y-82331895D01*
X7657923Y-82298633D01*
X7614021Y-82289900D01*
X7614020Y-82289900D01*
X5884380Y-82289900D01*
X5884379Y-82289900D01*
X5840476Y-82298633D01*
X5790695Y-82331895D01*
X5757433Y-82381676D01*
X5748700Y-82425579D01*
X5748700Y-84155221D01*
X-42000Y-84155221D01*
X-42000Y-80750400D01*
X5743859Y-80750400D01*
X5763176Y-80946533D01*
X5820385Y-81135126D01*
X5820386Y-81135127D01*
X5913290Y-81308938D01*
X6038317Y-81461283D01*
X6190662Y-81586310D01*
X6364473Y-81679214D01*
X6553068Y-81736424D01*
X6749200Y-81755741D01*
X6945332Y-81736424D01*
X7133927Y-81679214D01*
X7307738Y-81586310D01*
X7460083Y-81461283D01*
X7585110Y-81308938D01*
X7678014Y-81135127D01*
X7735224Y-80946532D01*
X7754541Y-80750400D01*
X7745638Y-80660000D01*
X13871859Y-80660000D01*
X13891176Y-80856133D01*
X13948385Y-81044726D01*
X13948386Y-81044727D01*
X14041290Y-81218538D01*
X14166317Y-81370883D01*
X14318662Y-81495910D01*
X14492473Y-81588814D01*
X14681068Y-81646024D01*
X14877200Y-81665341D01*
X15073332Y-81646024D01*
X15261927Y-81588814D01*
X15435738Y-81495910D01*
X15588083Y-81370883D01*
X15713110Y-81218538D01*
X15806014Y-81044727D01*
X15863224Y-80856132D01*
X15882541Y-80660000D01*
X29114659Y-80660000D01*
X29133976Y-80856133D01*
X29191185Y-81044726D01*
X29191186Y-81044727D01*
X29284090Y-81218538D01*
X29409117Y-81370883D01*
X29561462Y-81495910D01*
X29735273Y-81588814D01*
X29923868Y-81646024D01*
X30120000Y-81665341D01*
X30316132Y-81646024D01*
X30504727Y-81588814D01*
X30678538Y-81495910D01*
X30830883Y-81370883D01*
X30955910Y-81218538D01*
X31048814Y-81044727D01*
X31106024Y-80856132D01*
X31125341Y-80660000D01*
X37242659Y-80660000D01*
X37261976Y-80856133D01*
X37319185Y-81044726D01*
X37319186Y-81044727D01*
X37412090Y-81218538D01*
X37537117Y-81370883D01*
X37689462Y-81495910D01*
X37863273Y-81588814D01*
X38051868Y-81646024D01*
X38248000Y-81665341D01*
X38444132Y-81646024D01*
X38632727Y-81588814D01*
X38806538Y-81495910D01*
X38958883Y-81370883D01*
X39083910Y-81218538D01*
X39176814Y-81044727D01*
X39234024Y-80856132D01*
X39253341Y-80660000D01*
X39234024Y-80463868D01*
X39176814Y-80275273D01*
X39083910Y-80101462D01*
X38958883Y-79949117D01*
X38806538Y-79824090D01*
X38784091Y-79812092D01*
X38632726Y-79731185D01*
X38444133Y-79673976D01*
X38346065Y-79664317D01*
X38248000Y-79654659D01*
X38247999Y-79654659D01*
X38051866Y-79673976D01*
X37863273Y-79731185D01*
X37689463Y-79824089D01*
X37537117Y-79949117D01*
X37412089Y-80101463D01*
X37319185Y-80275273D01*
X37261976Y-80463866D01*
X37242659Y-80660000D01*
X31125341Y-80660000D01*
X31106024Y-80463868D01*
X31048814Y-80275273D01*
X30955910Y-80101462D01*
X30830883Y-79949117D01*
X30678538Y-79824090D01*
X30656091Y-79812092D01*
X30504726Y-79731185D01*
X30316133Y-79673976D01*
X30218065Y-79664317D01*
X30120000Y-79654659D01*
X30119999Y-79654659D01*
X29923866Y-79673976D01*
X29735273Y-79731185D01*
X29561463Y-79824089D01*
X29409117Y-79949117D01*
X29284089Y-80101463D01*
X29191185Y-80275273D01*
X29133976Y-80463866D01*
X29114659Y-80660000D01*
X15882541Y-80660000D01*
X15863224Y-80463868D01*
X15806014Y-80275273D01*
X15713110Y-80101462D01*
X15588083Y-79949117D01*
X15435738Y-79824090D01*
X15413291Y-79812092D01*
X15261926Y-79731185D01*
X15073333Y-79673976D01*
X14975265Y-79664317D01*
X14877200Y-79654659D01*
X14877199Y-79654659D01*
X14681066Y-79673976D01*
X14492473Y-79731185D01*
X14318663Y-79824089D01*
X14166317Y-79949117D01*
X14041289Y-80101463D01*
X13948385Y-80275273D01*
X13891176Y-80463866D01*
X13871859Y-80660000D01*
X7745638Y-80660000D01*
X7735224Y-80554268D01*
X7678014Y-80365673D01*
X7585110Y-80191862D01*
X7460083Y-80039517D01*
X7307738Y-79914490D01*
X7138612Y-79824090D01*
X7133926Y-79821585D01*
X6945333Y-79764376D01*
X6847265Y-79754717D01*
X6749200Y-79745059D01*
X6749199Y-79745059D01*
X6553066Y-79764376D01*
X6364473Y-79821585D01*
X6190663Y-79914489D01*
X6038317Y-80039517D01*
X5913289Y-80191863D01*
X5820385Y-80365673D01*
X5763176Y-80554266D01*
X5743859Y-80750400D01*
X-42000Y-80750400D01*
X-42000Y-78210400D01*
X5743859Y-78210400D01*
X5763176Y-78406533D01*
X5820385Y-78595126D01*
X5820386Y-78595127D01*
X5913290Y-78768938D01*
X6038317Y-78921283D01*
X6190662Y-79046310D01*
X6364473Y-79139214D01*
X6553068Y-79196424D01*
X6749200Y-79215741D01*
X6945332Y-79196424D01*
X7133927Y-79139214D01*
X7307738Y-79046310D01*
X7460083Y-78921283D01*
X7585110Y-78768938D01*
X7678014Y-78595127D01*
X7735224Y-78406532D01*
X7754541Y-78210400D01*
X7745638Y-78120000D01*
X13871859Y-78120000D01*
X13891176Y-78316133D01*
X13948385Y-78504726D01*
X13948386Y-78504727D01*
X14041290Y-78678538D01*
X14166317Y-78830883D01*
X14318662Y-78955910D01*
X14492473Y-79048814D01*
X14681068Y-79106024D01*
X14877200Y-79125341D01*
X15073332Y-79106024D01*
X15261927Y-79048814D01*
X15435738Y-78955910D01*
X15588083Y-78830883D01*
X15713110Y-78678538D01*
X15806014Y-78504727D01*
X15863224Y-78316132D01*
X15882541Y-78120000D01*
X29114659Y-78120000D01*
X29133976Y-78316133D01*
X29191185Y-78504726D01*
X29191186Y-78504727D01*
X29284090Y-78678538D01*
X29409117Y-78830883D01*
X29561462Y-78955910D01*
X29735273Y-79048814D01*
X29923868Y-79106024D01*
X30120000Y-79125341D01*
X30316132Y-79106024D01*
X30504727Y-79048814D01*
X30678538Y-78955910D01*
X30830883Y-78830883D01*
X30955910Y-78678538D01*
X31048814Y-78504727D01*
X31106024Y-78316132D01*
X31125341Y-78120000D01*
X37242659Y-78120000D01*
X37261976Y-78316133D01*
X37319185Y-78504726D01*
X37319186Y-78504727D01*
X37412090Y-78678538D01*
X37537117Y-78830883D01*
X37689462Y-78955910D01*
X37863273Y-79048814D01*
X38051868Y-79106024D01*
X38248000Y-79125341D01*
X38444132Y-79106024D01*
X38632727Y-79048814D01*
X38806538Y-78955910D01*
X38958883Y-78830883D01*
X39083910Y-78678538D01*
X39176814Y-78504727D01*
X39234024Y-78316132D01*
X39253341Y-78120000D01*
X39234024Y-77923868D01*
X39176814Y-77735273D01*
X39083910Y-77561462D01*
X38958883Y-77409117D01*
X38806538Y-77284090D01*
X38784091Y-77272092D01*
X38632726Y-77191185D01*
X38444133Y-77133976D01*
X38248000Y-77114659D01*
X38051866Y-77133976D01*
X37863273Y-77191185D01*
X37689463Y-77284089D01*
X37537117Y-77409117D01*
X37412089Y-77561463D01*
X37319185Y-77735273D01*
X37261976Y-77923866D01*
X37242659Y-78120000D01*
X31125341Y-78120000D01*
X31106024Y-77923868D01*
X31048814Y-77735273D01*
X30955910Y-77561462D01*
X30830883Y-77409117D01*
X30678538Y-77284090D01*
X30656091Y-77272092D01*
X30504726Y-77191185D01*
X30316133Y-77133976D01*
X30120000Y-77114659D01*
X29923866Y-77133976D01*
X29735273Y-77191185D01*
X29561463Y-77284089D01*
X29409117Y-77409117D01*
X29284089Y-77561463D01*
X29191185Y-77735273D01*
X29133976Y-77923866D01*
X29114659Y-78120000D01*
X15882541Y-78120000D01*
X15863224Y-77923868D01*
X15806014Y-77735273D01*
X15713110Y-77561462D01*
X15588083Y-77409117D01*
X15435738Y-77284090D01*
X15413291Y-77272092D01*
X15261926Y-77191185D01*
X15073333Y-77133976D01*
X14877200Y-77114659D01*
X14681066Y-77133976D01*
X14492473Y-77191185D01*
X14318663Y-77284089D01*
X14166317Y-77409117D01*
X14041289Y-77561463D01*
X13948385Y-77735273D01*
X13891176Y-77923866D01*
X13871859Y-78120000D01*
X7745638Y-78120000D01*
X7735224Y-78014268D01*
X7678014Y-77825673D01*
X7585110Y-77651862D01*
X7460083Y-77499517D01*
X7307738Y-77374490D01*
X7138612Y-77284090D01*
X7133926Y-77281585D01*
X6945333Y-77224376D01*
X6749200Y-77205059D01*
X6553066Y-77224376D01*
X6364473Y-77281585D01*
X6190663Y-77374489D01*
X6038317Y-77499517D01*
X5913289Y-77651863D01*
X5820385Y-77825673D01*
X5763176Y-78014266D01*
X5743859Y-78210400D01*
X-42000Y-78210400D01*
X-42000Y-75670400D01*
X5743859Y-75670400D01*
X5763176Y-75866533D01*
X5820385Y-76055126D01*
X5820386Y-76055127D01*
X5913290Y-76228938D01*
X6038317Y-76381283D01*
X6190662Y-76506310D01*
X6364473Y-76599214D01*
X6553068Y-76656424D01*
X6749200Y-76675741D01*
X6945332Y-76656424D01*
X7133927Y-76599214D01*
X7307738Y-76506310D01*
X7460083Y-76381283D01*
X7585110Y-76228938D01*
X7678014Y-76055127D01*
X7735224Y-75866532D01*
X7754541Y-75670400D01*
X7745638Y-75580000D01*
X13871859Y-75580000D01*
X13891176Y-75776133D01*
X13948385Y-75964726D01*
X13948386Y-75964727D01*
X14041290Y-76138538D01*
X14166317Y-76290883D01*
X14318662Y-76415910D01*
X14492473Y-76508814D01*
X14681068Y-76566024D01*
X14877200Y-76585341D01*
X15073332Y-76566024D01*
X15261927Y-76508814D01*
X15435738Y-76415910D01*
X15588083Y-76290883D01*
X15713110Y-76138538D01*
X15806014Y-75964727D01*
X15863224Y-75776132D01*
X15882541Y-75580000D01*
X29114659Y-75580000D01*
X29133976Y-75776133D01*
X29191185Y-75964726D01*
X29191186Y-75964727D01*
X29284090Y-76138538D01*
X29409117Y-76290883D01*
X29561462Y-76415910D01*
X29735273Y-76508814D01*
X29923868Y-76566024D01*
X30120000Y-76585341D01*
X30316132Y-76566024D01*
X30504727Y-76508814D01*
X30678538Y-76415910D01*
X30830883Y-76290883D01*
X30955910Y-76138538D01*
X31048814Y-75964727D01*
X31106024Y-75776132D01*
X31125341Y-75580000D01*
X37242659Y-75580000D01*
X37261976Y-75776133D01*
X37319185Y-75964726D01*
X37319186Y-75964727D01*
X37412090Y-76138538D01*
X37537117Y-76290883D01*
X37689462Y-76415910D01*
X37863273Y-76508814D01*
X38051868Y-76566024D01*
X38248000Y-76585341D01*
X38444132Y-76566024D01*
X38632727Y-76508814D01*
X38806538Y-76415910D01*
X38958883Y-76290883D01*
X39083910Y-76138538D01*
X39176814Y-75964727D01*
X39234024Y-75776132D01*
X39253341Y-75580000D01*
X39234024Y-75383868D01*
X39176814Y-75195273D01*
X39083910Y-75021462D01*
X38958883Y-74869117D01*
X38806538Y-74744090D01*
X38784091Y-74732091D01*
X38632726Y-74651185D01*
X38444133Y-74593976D01*
X38248000Y-74574659D01*
X38051866Y-74593976D01*
X37863273Y-74651185D01*
X37689463Y-74744089D01*
X37537117Y-74869117D01*
X37412089Y-75021463D01*
X37319185Y-75195273D01*
X37261976Y-75383866D01*
X37242659Y-75580000D01*
X31125341Y-75580000D01*
X31106024Y-75383868D01*
X31048814Y-75195273D01*
X30955910Y-75021462D01*
X30830883Y-74869117D01*
X30678538Y-74744090D01*
X30656091Y-74732091D01*
X30504726Y-74651185D01*
X30316133Y-74593976D01*
X30120000Y-74574659D01*
X29923866Y-74593976D01*
X29735273Y-74651185D01*
X29561463Y-74744089D01*
X29409117Y-74869117D01*
X29284089Y-75021463D01*
X29191185Y-75195273D01*
X29133976Y-75383866D01*
X29114659Y-75580000D01*
X15882541Y-75580000D01*
X15863224Y-75383868D01*
X15806014Y-75195273D01*
X15713110Y-75021462D01*
X15588083Y-74869117D01*
X15435738Y-74744090D01*
X15413291Y-74732091D01*
X15261926Y-74651185D01*
X15073333Y-74593976D01*
X14877200Y-74574659D01*
X14681066Y-74593976D01*
X14492473Y-74651185D01*
X14318663Y-74744089D01*
X14166317Y-74869117D01*
X14041289Y-75021463D01*
X13948385Y-75195273D01*
X13891176Y-75383866D01*
X13871859Y-75580000D01*
X7745638Y-75580000D01*
X7735224Y-75474268D01*
X7678014Y-75285673D01*
X7585110Y-75111862D01*
X7460083Y-74959517D01*
X7307738Y-74834490D01*
X7138612Y-74744090D01*
X7133926Y-74741585D01*
X6945333Y-74684376D01*
X6749200Y-74665059D01*
X6553066Y-74684376D01*
X6364473Y-74741585D01*
X6190663Y-74834489D01*
X6038317Y-74959517D01*
X5913289Y-75111863D01*
X5820385Y-75285673D01*
X5763176Y-75474266D01*
X5743859Y-75670400D01*
X-42000Y-75670400D01*
X-42000Y-73130399D01*
X5743859Y-73130399D01*
X5763176Y-73326533D01*
X5820385Y-73515126D01*
X5820386Y-73515127D01*
X5913290Y-73688938D01*
X6038317Y-73841283D01*
X6190662Y-73966310D01*
X6364473Y-74059214D01*
X6553068Y-74116424D01*
X6749200Y-74135741D01*
X6945332Y-74116424D01*
X7133927Y-74059214D01*
X7307738Y-73966310D01*
X7460083Y-73841283D01*
X7585110Y-73688938D01*
X7678014Y-73515127D01*
X7735224Y-73326532D01*
X7754541Y-73130400D01*
X7745638Y-73040000D01*
X13871859Y-73040000D01*
X13891176Y-73236133D01*
X13948385Y-73424726D01*
X13948386Y-73424727D01*
X14041290Y-73598538D01*
X14166317Y-73750883D01*
X14318662Y-73875910D01*
X14492473Y-73968814D01*
X14681068Y-74026024D01*
X14877200Y-74045341D01*
X15073332Y-74026024D01*
X15261927Y-73968814D01*
X15435738Y-73875910D01*
X15588083Y-73750883D01*
X15713110Y-73598538D01*
X15806014Y-73424727D01*
X15863224Y-73236132D01*
X15882541Y-73040000D01*
X29114659Y-73040000D01*
X29133976Y-73236133D01*
X29191185Y-73424726D01*
X29191186Y-73424727D01*
X29284090Y-73598538D01*
X29409117Y-73750883D01*
X29561462Y-73875910D01*
X29735273Y-73968814D01*
X29923868Y-74026024D01*
X30120000Y-74045341D01*
X30316132Y-74026024D01*
X30504727Y-73968814D01*
X30678538Y-73875910D01*
X30830883Y-73750883D01*
X30955910Y-73598538D01*
X31048814Y-73424727D01*
X31106024Y-73236132D01*
X31125341Y-73040000D01*
X37242659Y-73040000D01*
X37261976Y-73236133D01*
X37319185Y-73424726D01*
X37319186Y-73424727D01*
X37412090Y-73598538D01*
X37537117Y-73750883D01*
X37689462Y-73875910D01*
X37863273Y-73968814D01*
X38051868Y-74026024D01*
X38248000Y-74045341D01*
X38444132Y-74026024D01*
X38632727Y-73968814D01*
X38806538Y-73875910D01*
X38958883Y-73750883D01*
X39083910Y-73598538D01*
X39176814Y-73424727D01*
X39234024Y-73236132D01*
X39253341Y-73040000D01*
X39234024Y-72843868D01*
X39176814Y-72655273D01*
X39083910Y-72481462D01*
X38958883Y-72329117D01*
X38806538Y-72204090D01*
X38784091Y-72192091D01*
X38632726Y-72111185D01*
X38444133Y-72053976D01*
X38346066Y-72044317D01*
X38248000Y-72034659D01*
X38247999Y-72034659D01*
X38051866Y-72053976D01*
X37863273Y-72111185D01*
X37689463Y-72204089D01*
X37537117Y-72329117D01*
X37412089Y-72481463D01*
X37319185Y-72655273D01*
X37261976Y-72843866D01*
X37242659Y-73040000D01*
X31125341Y-73040000D01*
X31106024Y-72843868D01*
X31048814Y-72655273D01*
X30955910Y-72481462D01*
X30830883Y-72329117D01*
X30678538Y-72204090D01*
X30656091Y-72192091D01*
X30504726Y-72111185D01*
X30316133Y-72053976D01*
X30218066Y-72044317D01*
X30120000Y-72034659D01*
X30119999Y-72034659D01*
X29923866Y-72053976D01*
X29735273Y-72111185D01*
X29561463Y-72204089D01*
X29409117Y-72329117D01*
X29284089Y-72481463D01*
X29191185Y-72655273D01*
X29133976Y-72843866D01*
X29114659Y-73040000D01*
X15882541Y-73040000D01*
X15863224Y-72843868D01*
X15806014Y-72655273D01*
X15713110Y-72481462D01*
X15588083Y-72329117D01*
X15435738Y-72204090D01*
X15413291Y-72192091D01*
X15261926Y-72111185D01*
X15073333Y-72053976D01*
X14975266Y-72044317D01*
X14877200Y-72034659D01*
X14877199Y-72034659D01*
X14681066Y-72053976D01*
X14492473Y-72111185D01*
X14318663Y-72204089D01*
X14166317Y-72329117D01*
X14041289Y-72481463D01*
X13948385Y-72655273D01*
X13891176Y-72843866D01*
X13871859Y-73040000D01*
X7745638Y-73040000D01*
X7735224Y-72934268D01*
X7678014Y-72745673D01*
X7585110Y-72571862D01*
X7460083Y-72419517D01*
X7307738Y-72294490D01*
X7138612Y-72204090D01*
X7133926Y-72201585D01*
X6945333Y-72144376D01*
X6749200Y-72125059D01*
X6553066Y-72144376D01*
X6364473Y-72201585D01*
X6190663Y-72294489D01*
X6038317Y-72419517D01*
X5913289Y-72571863D01*
X5820385Y-72745673D01*
X5763176Y-72934266D01*
X5743859Y-73130399D01*
X-42000Y-73130399D01*
X-42000Y-70590399D01*
X5743859Y-70590399D01*
X5763176Y-70786533D01*
X5820385Y-70975126D01*
X5820386Y-70975127D01*
X5913290Y-71148938D01*
X6038317Y-71301283D01*
X6190662Y-71426310D01*
X6364473Y-71519214D01*
X6553068Y-71576424D01*
X6749200Y-71595741D01*
X6945332Y-71576424D01*
X7133927Y-71519214D01*
X7307738Y-71426310D01*
X7460083Y-71301283D01*
X7585110Y-71148938D01*
X7678014Y-70975127D01*
X7735224Y-70786532D01*
X7754541Y-70590400D01*
X7745638Y-70500000D01*
X13871859Y-70500000D01*
X13891176Y-70696133D01*
X13948385Y-70884726D01*
X13948386Y-70884727D01*
X14041290Y-71058538D01*
X14166317Y-71210883D01*
X14318662Y-71335910D01*
X14492473Y-71428814D01*
X14681068Y-71486024D01*
X14877200Y-71505341D01*
X15073332Y-71486024D01*
X15261927Y-71428814D01*
X15435738Y-71335910D01*
X15588083Y-71210883D01*
X15713110Y-71058538D01*
X15806014Y-70884727D01*
X15863224Y-70696132D01*
X15882541Y-70500000D01*
X29114659Y-70500000D01*
X29133976Y-70696133D01*
X29191185Y-70884726D01*
X29191186Y-70884727D01*
X29284090Y-71058538D01*
X29409117Y-71210883D01*
X29561462Y-71335910D01*
X29735273Y-71428814D01*
X29923868Y-71486024D01*
X30120000Y-71505341D01*
X30316132Y-71486024D01*
X30504727Y-71428814D01*
X30678538Y-71335910D01*
X30830883Y-71210883D01*
X30955910Y-71058538D01*
X31048814Y-70884727D01*
X31106024Y-70696132D01*
X31125341Y-70500000D01*
X37242659Y-70500000D01*
X37261976Y-70696133D01*
X37319185Y-70884726D01*
X37319186Y-70884727D01*
X37412090Y-71058538D01*
X37537117Y-71210883D01*
X37689462Y-71335910D01*
X37863273Y-71428814D01*
X38051868Y-71486024D01*
X38248000Y-71505341D01*
X38444132Y-71486024D01*
X38632727Y-71428814D01*
X38806538Y-71335910D01*
X38958883Y-71210883D01*
X39083910Y-71058538D01*
X39176814Y-70884727D01*
X39234024Y-70696132D01*
X39253341Y-70500000D01*
X39234024Y-70303868D01*
X39176814Y-70115273D01*
X39083910Y-69941462D01*
X38958883Y-69789117D01*
X38806538Y-69664090D01*
X38784091Y-69652091D01*
X38632726Y-69571185D01*
X38444133Y-69513976D01*
X38248000Y-69494659D01*
X38051866Y-69513976D01*
X37863273Y-69571185D01*
X37689463Y-69664089D01*
X37537117Y-69789117D01*
X37412089Y-69941463D01*
X37319185Y-70115273D01*
X37261976Y-70303866D01*
X37242659Y-70500000D01*
X31125341Y-70500000D01*
X31106024Y-70303868D01*
X31048814Y-70115273D01*
X30955910Y-69941462D01*
X30830883Y-69789117D01*
X30678538Y-69664090D01*
X30656091Y-69652091D01*
X30504726Y-69571185D01*
X30316133Y-69513976D01*
X30120000Y-69494659D01*
X29923866Y-69513976D01*
X29735273Y-69571185D01*
X29561463Y-69664089D01*
X29409117Y-69789117D01*
X29284089Y-69941463D01*
X29191185Y-70115273D01*
X29133976Y-70303866D01*
X29114659Y-70500000D01*
X15882541Y-70500000D01*
X15863224Y-70303868D01*
X15806014Y-70115273D01*
X15713110Y-69941462D01*
X15588083Y-69789117D01*
X15435738Y-69664090D01*
X15413291Y-69652091D01*
X15261926Y-69571185D01*
X15073333Y-69513976D01*
X14877200Y-69494659D01*
X14681066Y-69513976D01*
X14492473Y-69571185D01*
X14318663Y-69664089D01*
X14166317Y-69789117D01*
X14041289Y-69941463D01*
X13948385Y-70115273D01*
X13891176Y-70303866D01*
X13871859Y-70500000D01*
X7745638Y-70500000D01*
X7735224Y-70394268D01*
X7678014Y-70205673D01*
X7585110Y-70031862D01*
X7460083Y-69879517D01*
X7307738Y-69754490D01*
X7138612Y-69664090D01*
X7133926Y-69661585D01*
X6945333Y-69604376D01*
X6749200Y-69585059D01*
X6553066Y-69604376D01*
X6364473Y-69661585D01*
X6190663Y-69754489D01*
X6038317Y-69879517D01*
X5913289Y-70031863D01*
X5820385Y-70205673D01*
X5763176Y-70394266D01*
X5743859Y-70590399D01*
X-42000Y-70590399D01*
X-42000Y-68050400D01*
X5743859Y-68050400D01*
X5763176Y-68246533D01*
X5820385Y-68435126D01*
X5820386Y-68435127D01*
X5913290Y-68608938D01*
X6038317Y-68761283D01*
X6190662Y-68886310D01*
X6364473Y-68979214D01*
X6553068Y-69036424D01*
X6749200Y-69055741D01*
X6945332Y-69036424D01*
X7133927Y-68979214D01*
X7307738Y-68886310D01*
X7460083Y-68761283D01*
X7585110Y-68608938D01*
X7678014Y-68435127D01*
X7735224Y-68246532D01*
X7754541Y-68050400D01*
X7745638Y-67960000D01*
X13871859Y-67960000D01*
X13891176Y-68156133D01*
X13948385Y-68344726D01*
X13948386Y-68344727D01*
X14041290Y-68518538D01*
X14166317Y-68670883D01*
X14318662Y-68795910D01*
X14492473Y-68888814D01*
X14681068Y-68946024D01*
X14877200Y-68965341D01*
X15073332Y-68946024D01*
X15261927Y-68888814D01*
X15435738Y-68795910D01*
X15588083Y-68670883D01*
X15713110Y-68518538D01*
X15806014Y-68344727D01*
X15863224Y-68156132D01*
X15882541Y-67960000D01*
X29114659Y-67960000D01*
X29133976Y-68156133D01*
X29191185Y-68344726D01*
X29191186Y-68344727D01*
X29284090Y-68518538D01*
X29409117Y-68670883D01*
X29561462Y-68795910D01*
X29735273Y-68888814D01*
X29923868Y-68946024D01*
X30120000Y-68965341D01*
X30316132Y-68946024D01*
X30504727Y-68888814D01*
X30678538Y-68795910D01*
X30830883Y-68670883D01*
X30955910Y-68518538D01*
X31048814Y-68344727D01*
X31106024Y-68156132D01*
X31125341Y-67960000D01*
X37242659Y-67960000D01*
X37261976Y-68156133D01*
X37319185Y-68344726D01*
X37319186Y-68344727D01*
X37412090Y-68518538D01*
X37537117Y-68670883D01*
X37689462Y-68795910D01*
X37863273Y-68888814D01*
X38051868Y-68946024D01*
X38248000Y-68965341D01*
X38444132Y-68946024D01*
X38632727Y-68888814D01*
X38806538Y-68795910D01*
X38958883Y-68670883D01*
X39083910Y-68518538D01*
X39176814Y-68344727D01*
X39234024Y-68156132D01*
X39253341Y-67960000D01*
X39234024Y-67763868D01*
X39176814Y-67575273D01*
X39083910Y-67401462D01*
X38958883Y-67249117D01*
X38806538Y-67124090D01*
X38784091Y-67112092D01*
X38632726Y-67031185D01*
X38444133Y-66973976D01*
X38248000Y-66954659D01*
X38051866Y-66973976D01*
X37863273Y-67031185D01*
X37689463Y-67124089D01*
X37537117Y-67249117D01*
X37412089Y-67401463D01*
X37319185Y-67575273D01*
X37261976Y-67763866D01*
X37242659Y-67960000D01*
X31125341Y-67960000D01*
X31106024Y-67763868D01*
X31048814Y-67575273D01*
X30955910Y-67401462D01*
X30830883Y-67249117D01*
X30678538Y-67124090D01*
X30656091Y-67112092D01*
X30504726Y-67031185D01*
X30316133Y-66973976D01*
X30120000Y-66954659D01*
X29923866Y-66973976D01*
X29735273Y-67031185D01*
X29561463Y-67124089D01*
X29409117Y-67249117D01*
X29284089Y-67401463D01*
X29191185Y-67575273D01*
X29133976Y-67763866D01*
X29114659Y-67960000D01*
X15882541Y-67960000D01*
X15863224Y-67763868D01*
X15806014Y-67575273D01*
X15713110Y-67401462D01*
X15588083Y-67249117D01*
X15435738Y-67124090D01*
X15413291Y-67112092D01*
X15261926Y-67031185D01*
X15073333Y-66973976D01*
X14877200Y-66954659D01*
X14681066Y-66973976D01*
X14492473Y-67031185D01*
X14318663Y-67124089D01*
X14166317Y-67249117D01*
X14041289Y-67401463D01*
X13948385Y-67575273D01*
X13891176Y-67763866D01*
X13871859Y-67960000D01*
X7745638Y-67960000D01*
X7735224Y-67854268D01*
X7678014Y-67665673D01*
X7585110Y-67491862D01*
X7460083Y-67339517D01*
X7307738Y-67214490D01*
X7138612Y-67124090D01*
X7133926Y-67121585D01*
X6945333Y-67064376D01*
X6749200Y-67045059D01*
X6553066Y-67064376D01*
X6364473Y-67121585D01*
X6190663Y-67214489D01*
X6038317Y-67339517D01*
X5913289Y-67491863D01*
X5820385Y-67665673D01*
X5763176Y-67854266D01*
X5743859Y-68050400D01*
X-42000Y-68050400D01*
X-42000Y-65510400D01*
X5743859Y-65510400D01*
X5763176Y-65706533D01*
X5820385Y-65895126D01*
X5820386Y-65895127D01*
X5913290Y-66068938D01*
X6038317Y-66221283D01*
X6190662Y-66346310D01*
X6364473Y-66439214D01*
X6553068Y-66496424D01*
X6749200Y-66515741D01*
X6945332Y-66496424D01*
X7133927Y-66439214D01*
X7307738Y-66346310D01*
X7460083Y-66221283D01*
X7585110Y-66068938D01*
X7678014Y-65895127D01*
X7735224Y-65706532D01*
X7754541Y-65510400D01*
X7745637Y-65419999D01*
X13871859Y-65419999D01*
X13891176Y-65616133D01*
X13948385Y-65804726D01*
X13948386Y-65804727D01*
X14041290Y-65978538D01*
X14166317Y-66130883D01*
X14318662Y-66255910D01*
X14492473Y-66348814D01*
X14681068Y-66406024D01*
X14877200Y-66425341D01*
X15073332Y-66406024D01*
X15261927Y-66348814D01*
X15435738Y-66255910D01*
X15588083Y-66130883D01*
X15713110Y-65978538D01*
X15806014Y-65804727D01*
X15863224Y-65616132D01*
X15882541Y-65420000D01*
X15882541Y-65419999D01*
X29114659Y-65419999D01*
X29133976Y-65616133D01*
X29191185Y-65804726D01*
X29191186Y-65804727D01*
X29284090Y-65978538D01*
X29409117Y-66130883D01*
X29561462Y-66255910D01*
X29735273Y-66348814D01*
X29923868Y-66406024D01*
X30120000Y-66425341D01*
X30316132Y-66406024D01*
X30504727Y-66348814D01*
X30678538Y-66255910D01*
X30830883Y-66130883D01*
X30955910Y-65978538D01*
X31048814Y-65804727D01*
X31106024Y-65616132D01*
X31125341Y-65420000D01*
X31125341Y-65419999D01*
X37242659Y-65419999D01*
X37261976Y-65616133D01*
X37319185Y-65804726D01*
X37319186Y-65804727D01*
X37412090Y-65978538D01*
X37537117Y-66130883D01*
X37689462Y-66255910D01*
X37863273Y-66348814D01*
X38051868Y-66406024D01*
X38248000Y-66425341D01*
X38444132Y-66406024D01*
X38632727Y-66348814D01*
X38806538Y-66255910D01*
X38958883Y-66130883D01*
X39083910Y-65978538D01*
X39176814Y-65804727D01*
X39234024Y-65616132D01*
X39253341Y-65420000D01*
X39234024Y-65223868D01*
X39176814Y-65035273D01*
X39083910Y-64861462D01*
X38958883Y-64709117D01*
X38806538Y-64584090D01*
X38784091Y-64572091D01*
X38632726Y-64491185D01*
X38444133Y-64433976D01*
X38248000Y-64414659D01*
X38051866Y-64433976D01*
X37863273Y-64491185D01*
X37689463Y-64584089D01*
X37537117Y-64709117D01*
X37412089Y-64861463D01*
X37319185Y-65035273D01*
X37261976Y-65223866D01*
X37242659Y-65419999D01*
X31125341Y-65419999D01*
X31106024Y-65223868D01*
X31048814Y-65035273D01*
X30955910Y-64861462D01*
X30830883Y-64709117D01*
X30678538Y-64584090D01*
X30656091Y-64572091D01*
X30504726Y-64491185D01*
X30316133Y-64433976D01*
X30120000Y-64414659D01*
X29923866Y-64433976D01*
X29735273Y-64491185D01*
X29561463Y-64584089D01*
X29409117Y-64709117D01*
X29284089Y-64861463D01*
X29191185Y-65035273D01*
X29133976Y-65223866D01*
X29114659Y-65419999D01*
X15882541Y-65419999D01*
X15863224Y-65223868D01*
X15806014Y-65035273D01*
X15713110Y-64861462D01*
X15588083Y-64709117D01*
X15435738Y-64584090D01*
X15413291Y-64572091D01*
X15261926Y-64491185D01*
X15073333Y-64433976D01*
X14877200Y-64414659D01*
X14681066Y-64433976D01*
X14492473Y-64491185D01*
X14318663Y-64584089D01*
X14166317Y-64709117D01*
X14041289Y-64861463D01*
X13948385Y-65035273D01*
X13891176Y-65223866D01*
X13871859Y-65419999D01*
X7745637Y-65419999D01*
X7735224Y-65314268D01*
X7678014Y-65125673D01*
X7585110Y-64951862D01*
X7460083Y-64799517D01*
X7307738Y-64674490D01*
X7138612Y-64584090D01*
X7133926Y-64581585D01*
X6945333Y-64524376D01*
X6749200Y-64505059D01*
X6553066Y-64524376D01*
X6364473Y-64581585D01*
X6190663Y-64674489D01*
X6038317Y-64799517D01*
X5913289Y-64951863D01*
X5820385Y-65125673D01*
X5763176Y-65314266D01*
X5743859Y-65510400D01*
X-42000Y-65510400D01*
X-42000Y-62970400D01*
X5743859Y-62970400D01*
X5763176Y-63166533D01*
X5820385Y-63355126D01*
X5820386Y-63355127D01*
X5913290Y-63528938D01*
X6038317Y-63681283D01*
X6190662Y-63806310D01*
X6364473Y-63899214D01*
X6553068Y-63956424D01*
X6749200Y-63975741D01*
X6945332Y-63956424D01*
X7133927Y-63899214D01*
X7307738Y-63806310D01*
X7460083Y-63681283D01*
X7585110Y-63528938D01*
X7678014Y-63355127D01*
X7735224Y-63166532D01*
X7754541Y-62970400D01*
X7745637Y-62879999D01*
X13871859Y-62879999D01*
X13891176Y-63076133D01*
X13948385Y-63264726D01*
X13948386Y-63264727D01*
X14041290Y-63438538D01*
X14166317Y-63590883D01*
X14318662Y-63715910D01*
X14492473Y-63808814D01*
X14681068Y-63866024D01*
X14877200Y-63885341D01*
X15073332Y-63866024D01*
X15261927Y-63808814D01*
X15435738Y-63715910D01*
X15588083Y-63590883D01*
X15713110Y-63438538D01*
X15806014Y-63264727D01*
X15863224Y-63076132D01*
X15882541Y-62880000D01*
X15882541Y-62879999D01*
X29114659Y-62879999D01*
X29133976Y-63076133D01*
X29191185Y-63264726D01*
X29191186Y-63264727D01*
X29284090Y-63438538D01*
X29409117Y-63590883D01*
X29561462Y-63715910D01*
X29735273Y-63808814D01*
X29923868Y-63866024D01*
X30120000Y-63885341D01*
X30316132Y-63866024D01*
X30504727Y-63808814D01*
X30678538Y-63715910D01*
X30830883Y-63590883D01*
X30955910Y-63438538D01*
X31048814Y-63264727D01*
X31106024Y-63076132D01*
X31125341Y-62880000D01*
X31125341Y-62879999D01*
X37242659Y-62879999D01*
X37261976Y-63076133D01*
X37319185Y-63264726D01*
X37319186Y-63264727D01*
X37412090Y-63438538D01*
X37537117Y-63590883D01*
X37689462Y-63715910D01*
X37863273Y-63808814D01*
X38051868Y-63866024D01*
X38248000Y-63885341D01*
X38444132Y-63866024D01*
X38632727Y-63808814D01*
X38806538Y-63715910D01*
X38958883Y-63590883D01*
X39083910Y-63438538D01*
X39176814Y-63264727D01*
X39234024Y-63076132D01*
X39253341Y-62880000D01*
X39234024Y-62683868D01*
X39176814Y-62495273D01*
X39083910Y-62321462D01*
X38958883Y-62169117D01*
X38806538Y-62044090D01*
X38784091Y-62032091D01*
X38632726Y-61951185D01*
X38444133Y-61893976D01*
X38248000Y-61874659D01*
X38051866Y-61893976D01*
X37863273Y-61951185D01*
X37689463Y-62044089D01*
X37537117Y-62169117D01*
X37412089Y-62321463D01*
X37319185Y-62495273D01*
X37261976Y-62683866D01*
X37242659Y-62879999D01*
X31125341Y-62879999D01*
X31106024Y-62683868D01*
X31048814Y-62495273D01*
X30955910Y-62321462D01*
X30830883Y-62169117D01*
X30678538Y-62044090D01*
X30656091Y-62032091D01*
X30504726Y-61951185D01*
X30316133Y-61893976D01*
X30120000Y-61874659D01*
X29923866Y-61893976D01*
X29735273Y-61951185D01*
X29561463Y-62044089D01*
X29409117Y-62169117D01*
X29284089Y-62321463D01*
X29191185Y-62495273D01*
X29133976Y-62683866D01*
X29114659Y-62879999D01*
X15882541Y-62879999D01*
X15863224Y-62683868D01*
X15806014Y-62495273D01*
X15713110Y-62321462D01*
X15588083Y-62169117D01*
X15435738Y-62044090D01*
X15413291Y-62032091D01*
X15261926Y-61951185D01*
X15073333Y-61893976D01*
X14877200Y-61874659D01*
X14681066Y-61893976D01*
X14492473Y-61951185D01*
X14318663Y-62044089D01*
X14166317Y-62169117D01*
X14041289Y-62321463D01*
X13948385Y-62495273D01*
X13891176Y-62683866D01*
X13871859Y-62879999D01*
X7745637Y-62879999D01*
X7735224Y-62774268D01*
X7678014Y-62585673D01*
X7585110Y-62411862D01*
X7460083Y-62259517D01*
X7307738Y-62134490D01*
X7138612Y-62044090D01*
X7133926Y-62041585D01*
X6945333Y-61984376D01*
X6749200Y-61965059D01*
X6553066Y-61984376D01*
X6364473Y-62041585D01*
X6190663Y-62134489D01*
X6038317Y-62259517D01*
X5913289Y-62411863D01*
X5820385Y-62585673D01*
X5763176Y-62774266D01*
X5743859Y-62970400D01*
X-42000Y-62970400D01*
X-42000Y-60430399D01*
X5743859Y-60430399D01*
X5763176Y-60626533D01*
X5820385Y-60815126D01*
X5820386Y-60815127D01*
X5913290Y-60988938D01*
X6038317Y-61141283D01*
X6190662Y-61266310D01*
X6364473Y-61359214D01*
X6553068Y-61416424D01*
X6749200Y-61435741D01*
X6945332Y-61416424D01*
X7133927Y-61359214D01*
X7307738Y-61266310D01*
X7460083Y-61141283D01*
X7585110Y-60988938D01*
X7678014Y-60815127D01*
X7735224Y-60626532D01*
X7754541Y-60430400D01*
X7745637Y-60339999D01*
X13871859Y-60339999D01*
X13891176Y-60536133D01*
X13948385Y-60724726D01*
X13948386Y-60724727D01*
X14041290Y-60898538D01*
X14166317Y-61050883D01*
X14318662Y-61175910D01*
X14492473Y-61268814D01*
X14681068Y-61326024D01*
X14877200Y-61345341D01*
X15073332Y-61326024D01*
X15261927Y-61268814D01*
X15435738Y-61175910D01*
X15588083Y-61050883D01*
X15713110Y-60898538D01*
X15806014Y-60724727D01*
X15863224Y-60536132D01*
X15882541Y-60340000D01*
X15882541Y-60339999D01*
X29114659Y-60339999D01*
X29133976Y-60536133D01*
X29191185Y-60724726D01*
X29191186Y-60724727D01*
X29284090Y-60898538D01*
X29409117Y-61050883D01*
X29561462Y-61175910D01*
X29735273Y-61268814D01*
X29923868Y-61326024D01*
X30120000Y-61345341D01*
X30316132Y-61326024D01*
X30504727Y-61268814D01*
X30678538Y-61175910D01*
X30830883Y-61050883D01*
X30955910Y-60898538D01*
X31048814Y-60724727D01*
X31106024Y-60536132D01*
X31125341Y-60340000D01*
X31125341Y-60339999D01*
X37242659Y-60339999D01*
X37261976Y-60536133D01*
X37319185Y-60724726D01*
X37319186Y-60724727D01*
X37412090Y-60898538D01*
X37537117Y-61050883D01*
X37689462Y-61175910D01*
X37863273Y-61268814D01*
X38051868Y-61326024D01*
X38248000Y-61345341D01*
X38444132Y-61326024D01*
X38632727Y-61268814D01*
X38806538Y-61175910D01*
X38958883Y-61050883D01*
X39083910Y-60898538D01*
X39176814Y-60724727D01*
X39234024Y-60536132D01*
X39253341Y-60340000D01*
X39234024Y-60143868D01*
X39176814Y-59955273D01*
X39083910Y-59781462D01*
X38958883Y-59629117D01*
X38806538Y-59504090D01*
X38784091Y-59492092D01*
X38632726Y-59411185D01*
X38444133Y-59353976D01*
X38248000Y-59334659D01*
X38051866Y-59353976D01*
X37863273Y-59411185D01*
X37689463Y-59504089D01*
X37537117Y-59629117D01*
X37412089Y-59781463D01*
X37319185Y-59955273D01*
X37261976Y-60143866D01*
X37242659Y-60339999D01*
X31125341Y-60339999D01*
X31106024Y-60143868D01*
X31048814Y-59955273D01*
X30955910Y-59781462D01*
X30830883Y-59629117D01*
X30678538Y-59504090D01*
X30656091Y-59492092D01*
X30504726Y-59411185D01*
X30316133Y-59353976D01*
X30120000Y-59334659D01*
X29923866Y-59353976D01*
X29735273Y-59411185D01*
X29561463Y-59504089D01*
X29409117Y-59629117D01*
X29284089Y-59781463D01*
X29191185Y-59955273D01*
X29133976Y-60143866D01*
X29114659Y-60339999D01*
X15882541Y-60339999D01*
X15863224Y-60143868D01*
X15806014Y-59955273D01*
X15713110Y-59781462D01*
X15588083Y-59629117D01*
X15435738Y-59504090D01*
X15413291Y-59492092D01*
X15261926Y-59411185D01*
X15073333Y-59353976D01*
X14877200Y-59334659D01*
X14681066Y-59353976D01*
X14492473Y-59411185D01*
X14318663Y-59504089D01*
X14166317Y-59629117D01*
X14041289Y-59781463D01*
X13948385Y-59955273D01*
X13891176Y-60143866D01*
X13871859Y-60339999D01*
X7745637Y-60339999D01*
X7735224Y-60234268D01*
X7678014Y-60045673D01*
X7585110Y-59871862D01*
X7460083Y-59719517D01*
X7307738Y-59594490D01*
X7138612Y-59504090D01*
X7133926Y-59501585D01*
X6945333Y-59444376D01*
X6749200Y-59425059D01*
X6553066Y-59444376D01*
X6364473Y-59501585D01*
X6190663Y-59594489D01*
X6038317Y-59719517D01*
X5913289Y-59871863D01*
X5820385Y-60045673D01*
X5763176Y-60234266D01*
X5743859Y-60430399D01*
X-42000Y-60430399D01*
X-42000Y-57890400D01*
X5743859Y-57890400D01*
X5763176Y-58086533D01*
X5820385Y-58275126D01*
X5820386Y-58275127D01*
X5913290Y-58448938D01*
X6038317Y-58601283D01*
X6190662Y-58726310D01*
X6364473Y-58819214D01*
X6553068Y-58876424D01*
X6749200Y-58895741D01*
X6945332Y-58876424D01*
X7133927Y-58819214D01*
X7307738Y-58726310D01*
X7460083Y-58601283D01*
X7585110Y-58448938D01*
X7678014Y-58275127D01*
X7735224Y-58086532D01*
X7754541Y-57890400D01*
X7745638Y-57800000D01*
X13871859Y-57800000D01*
X13891176Y-57996133D01*
X13948385Y-58184726D01*
X13948386Y-58184727D01*
X14041290Y-58358538D01*
X14166317Y-58510883D01*
X14318662Y-58635910D01*
X14492473Y-58728814D01*
X14681068Y-58786024D01*
X14877200Y-58805341D01*
X15073332Y-58786024D01*
X15261927Y-58728814D01*
X15435738Y-58635910D01*
X15588083Y-58510883D01*
X15713110Y-58358538D01*
X15806014Y-58184727D01*
X15863224Y-57996132D01*
X15882541Y-57800000D01*
X29114659Y-57800000D01*
X29133976Y-57996133D01*
X29191185Y-58184726D01*
X29191186Y-58184727D01*
X29284090Y-58358538D01*
X29409117Y-58510883D01*
X29561462Y-58635910D01*
X29735273Y-58728814D01*
X29923868Y-58786024D01*
X30120000Y-58805341D01*
X30316132Y-58786024D01*
X30504727Y-58728814D01*
X30678538Y-58635910D01*
X30830883Y-58510883D01*
X30955910Y-58358538D01*
X31048814Y-58184727D01*
X31106024Y-57996132D01*
X31125341Y-57800000D01*
X37242659Y-57800000D01*
X37261976Y-57996133D01*
X37319185Y-58184726D01*
X37319186Y-58184727D01*
X37412090Y-58358538D01*
X37537117Y-58510883D01*
X37689462Y-58635910D01*
X37863273Y-58728814D01*
X38051868Y-58786024D01*
X38248000Y-58805341D01*
X38444132Y-58786024D01*
X38632727Y-58728814D01*
X38806538Y-58635910D01*
X38958883Y-58510883D01*
X39083910Y-58358538D01*
X39176814Y-58184727D01*
X39234024Y-57996132D01*
X39253341Y-57800000D01*
X39234024Y-57603868D01*
X39176814Y-57415273D01*
X39083910Y-57241462D01*
X38958883Y-57089117D01*
X38806538Y-56964090D01*
X38784091Y-56952092D01*
X38632726Y-56871185D01*
X38444133Y-56813976D01*
X38248000Y-56794659D01*
X38051866Y-56813976D01*
X37863273Y-56871185D01*
X37689463Y-56964089D01*
X37537117Y-57089117D01*
X37412089Y-57241463D01*
X37319185Y-57415273D01*
X37261976Y-57603866D01*
X37242659Y-57800000D01*
X31125341Y-57800000D01*
X31106024Y-57603868D01*
X31048814Y-57415273D01*
X30955910Y-57241462D01*
X30830883Y-57089117D01*
X30678538Y-56964090D01*
X30656091Y-56952092D01*
X30504726Y-56871185D01*
X30316133Y-56813976D01*
X30120000Y-56794659D01*
X29923866Y-56813976D01*
X29735273Y-56871185D01*
X29561463Y-56964089D01*
X29409117Y-57089117D01*
X29284089Y-57241463D01*
X29191185Y-57415273D01*
X29133976Y-57603866D01*
X29114659Y-57800000D01*
X15882541Y-57800000D01*
X15863224Y-57603868D01*
X15806014Y-57415273D01*
X15713110Y-57241462D01*
X15588083Y-57089117D01*
X15435738Y-56964090D01*
X15413291Y-56952092D01*
X15261926Y-56871185D01*
X15073333Y-56813976D01*
X14877200Y-56794659D01*
X14681066Y-56813976D01*
X14492473Y-56871185D01*
X14318663Y-56964089D01*
X14166317Y-57089117D01*
X14041289Y-57241463D01*
X13948385Y-57415273D01*
X13891176Y-57603866D01*
X13871859Y-57800000D01*
X7745638Y-57800000D01*
X7735224Y-57694268D01*
X7678014Y-57505673D01*
X7585110Y-57331862D01*
X7460083Y-57179517D01*
X7307738Y-57054490D01*
X7138612Y-56964090D01*
X7133926Y-56961585D01*
X6945333Y-56904376D01*
X6749200Y-56885059D01*
X6553066Y-56904376D01*
X6364473Y-56961585D01*
X6190663Y-57054489D01*
X6038317Y-57179517D01*
X5913289Y-57331863D01*
X5820385Y-57505673D01*
X5763176Y-57694266D01*
X5743859Y-57890400D01*
X-42000Y-57890400D01*
X-42000Y-55350400D01*
X5743859Y-55350400D01*
X5763176Y-55546533D01*
X5820385Y-55735126D01*
X5820386Y-55735127D01*
X5913290Y-55908938D01*
X6038317Y-56061283D01*
X6190662Y-56186310D01*
X6364473Y-56279214D01*
X6553068Y-56336424D01*
X6749200Y-56355741D01*
X6945332Y-56336424D01*
X7133927Y-56279214D01*
X7307738Y-56186310D01*
X7460083Y-56061283D01*
X7585110Y-55908938D01*
X7678014Y-55735127D01*
X7735224Y-55546532D01*
X7754541Y-55350400D01*
X7745638Y-55260000D01*
X13871859Y-55260000D01*
X13891176Y-55456133D01*
X13948385Y-55644726D01*
X13948386Y-55644727D01*
X14041290Y-55818538D01*
X14166317Y-55970883D01*
X14318662Y-56095910D01*
X14492473Y-56188814D01*
X14681068Y-56246024D01*
X14877200Y-56265341D01*
X15073332Y-56246024D01*
X15261927Y-56188814D01*
X15435738Y-56095910D01*
X15588083Y-55970883D01*
X15713110Y-55818538D01*
X15806014Y-55644727D01*
X15863224Y-55456132D01*
X15882541Y-55260000D01*
X29114659Y-55260000D01*
X29133976Y-55456133D01*
X29191185Y-55644726D01*
X29191186Y-55644727D01*
X29284090Y-55818538D01*
X29409117Y-55970883D01*
X29561462Y-56095910D01*
X29735273Y-56188814D01*
X29923868Y-56246024D01*
X30120000Y-56265341D01*
X30316132Y-56246024D01*
X30504727Y-56188814D01*
X30678538Y-56095910D01*
X30830883Y-55970883D01*
X30955910Y-55818538D01*
X31048814Y-55644727D01*
X31106024Y-55456132D01*
X31125341Y-55260000D01*
X37242659Y-55260000D01*
X37261976Y-55456133D01*
X37319185Y-55644726D01*
X37319186Y-55644727D01*
X37412090Y-55818538D01*
X37537117Y-55970883D01*
X37689462Y-56095910D01*
X37863273Y-56188814D01*
X38051868Y-56246024D01*
X38248000Y-56265341D01*
X38444132Y-56246024D01*
X38632727Y-56188814D01*
X38806538Y-56095910D01*
X38958883Y-55970883D01*
X39083910Y-55818538D01*
X39176814Y-55644727D01*
X39234024Y-55456132D01*
X39253341Y-55260000D01*
X39234024Y-55063868D01*
X39176814Y-54875273D01*
X39083910Y-54701462D01*
X38958883Y-54549117D01*
X38806538Y-54424090D01*
X38784091Y-54412092D01*
X38632726Y-54331185D01*
X38444133Y-54273976D01*
X38248000Y-54254659D01*
X38051866Y-54273976D01*
X37863273Y-54331185D01*
X37689463Y-54424089D01*
X37537117Y-54549117D01*
X37412089Y-54701463D01*
X37319185Y-54875273D01*
X37261976Y-55063866D01*
X37242659Y-55260000D01*
X31125341Y-55260000D01*
X31106024Y-55063868D01*
X31048814Y-54875273D01*
X30955910Y-54701462D01*
X30830883Y-54549117D01*
X30678538Y-54424090D01*
X30656091Y-54412092D01*
X30504726Y-54331185D01*
X30316133Y-54273976D01*
X30120000Y-54254659D01*
X29923866Y-54273976D01*
X29735273Y-54331185D01*
X29561463Y-54424089D01*
X29409117Y-54549117D01*
X29284089Y-54701463D01*
X29191185Y-54875273D01*
X29133976Y-55063866D01*
X29114659Y-55260000D01*
X15882541Y-55260000D01*
X15863224Y-55063868D01*
X15806014Y-54875273D01*
X15713110Y-54701462D01*
X15588083Y-54549117D01*
X15435738Y-54424090D01*
X15413291Y-54412092D01*
X15261926Y-54331185D01*
X15073333Y-54273976D01*
X14877200Y-54254659D01*
X14681066Y-54273976D01*
X14492473Y-54331185D01*
X14318663Y-54424089D01*
X14166317Y-54549117D01*
X14041289Y-54701463D01*
X13948385Y-54875273D01*
X13891176Y-55063866D01*
X13871859Y-55260000D01*
X7745638Y-55260000D01*
X7735224Y-55154268D01*
X7678014Y-54965673D01*
X7585110Y-54791862D01*
X7460083Y-54639517D01*
X7307738Y-54514490D01*
X7138612Y-54424090D01*
X7133926Y-54421585D01*
X6945333Y-54364376D01*
X6749200Y-54345059D01*
X6553066Y-54364376D01*
X6364473Y-54421585D01*
X6190663Y-54514489D01*
X6038317Y-54639517D01*
X5913289Y-54791863D01*
X5820385Y-54965673D01*
X5763176Y-55154266D01*
X5743859Y-55350400D01*
X-42000Y-55350400D01*
X-42000Y-52810400D01*
X5743859Y-52810400D01*
X5763176Y-53006533D01*
X5820385Y-53195126D01*
X5820386Y-53195127D01*
X5913290Y-53368938D01*
X6038317Y-53521283D01*
X6190662Y-53646310D01*
X6364473Y-53739214D01*
X6553068Y-53796424D01*
X6749200Y-53815741D01*
X6945332Y-53796424D01*
X7133927Y-53739214D01*
X7307738Y-53646310D01*
X7460083Y-53521283D01*
X7585110Y-53368938D01*
X7678014Y-53195127D01*
X7735224Y-53006532D01*
X7754541Y-52810400D01*
X7745637Y-52719999D01*
X13871859Y-52719999D01*
X13891176Y-52916133D01*
X13948385Y-53104726D01*
X13948386Y-53104727D01*
X14041290Y-53278538D01*
X14166317Y-53430883D01*
X14318662Y-53555910D01*
X14492473Y-53648814D01*
X14681068Y-53706024D01*
X14877200Y-53725341D01*
X15073332Y-53706024D01*
X15261927Y-53648814D01*
X15435738Y-53555910D01*
X15588083Y-53430883D01*
X15713110Y-53278538D01*
X15806014Y-53104727D01*
X15863224Y-52916132D01*
X15882541Y-52720000D01*
X15882541Y-52719999D01*
X29114659Y-52719999D01*
X29133976Y-52916133D01*
X29191185Y-53104726D01*
X29191186Y-53104727D01*
X29284090Y-53278538D01*
X29409117Y-53430883D01*
X29561462Y-53555910D01*
X29735273Y-53648814D01*
X29923868Y-53706024D01*
X30120000Y-53725341D01*
X30316132Y-53706024D01*
X30504727Y-53648814D01*
X30678538Y-53555910D01*
X30830883Y-53430883D01*
X30955910Y-53278538D01*
X31048814Y-53104727D01*
X31106024Y-52916132D01*
X31125341Y-52720000D01*
X31125341Y-52719999D01*
X37242659Y-52719999D01*
X37261976Y-52916133D01*
X37319185Y-53104726D01*
X37319186Y-53104727D01*
X37412090Y-53278538D01*
X37537117Y-53430883D01*
X37689462Y-53555910D01*
X37863273Y-53648814D01*
X38051868Y-53706024D01*
X38248000Y-53725341D01*
X38444132Y-53706024D01*
X38632727Y-53648814D01*
X38806538Y-53555910D01*
X38958883Y-53430883D01*
X39083910Y-53278538D01*
X39176814Y-53104727D01*
X39234024Y-52916132D01*
X39253341Y-52720000D01*
X39234024Y-52523868D01*
X39176814Y-52335273D01*
X39083910Y-52161462D01*
X38958883Y-52009117D01*
X38806538Y-51884090D01*
X38784091Y-51872091D01*
X38632726Y-51791185D01*
X38444133Y-51733976D01*
X38248000Y-51714659D01*
X38051866Y-51733976D01*
X37863273Y-51791185D01*
X37689463Y-51884089D01*
X37537117Y-52009117D01*
X37412089Y-52161463D01*
X37319185Y-52335273D01*
X37261976Y-52523866D01*
X37242659Y-52719999D01*
X31125341Y-52719999D01*
X31106024Y-52523868D01*
X31048814Y-52335273D01*
X30955910Y-52161462D01*
X30830883Y-52009117D01*
X30678538Y-51884090D01*
X30656091Y-51872091D01*
X30504726Y-51791185D01*
X30316133Y-51733976D01*
X30120000Y-51714659D01*
X29923866Y-51733976D01*
X29735273Y-51791185D01*
X29561463Y-51884089D01*
X29409117Y-52009117D01*
X29284089Y-52161463D01*
X29191185Y-52335273D01*
X29133976Y-52523866D01*
X29114659Y-52719999D01*
X15882541Y-52719999D01*
X15863224Y-52523868D01*
X15806014Y-52335273D01*
X15713110Y-52161462D01*
X15588083Y-52009117D01*
X15435738Y-51884090D01*
X15413291Y-51872091D01*
X15261926Y-51791185D01*
X15073333Y-51733976D01*
X14877200Y-51714659D01*
X14681066Y-51733976D01*
X14492473Y-51791185D01*
X14318663Y-51884089D01*
X14166317Y-52009117D01*
X14041289Y-52161463D01*
X13948385Y-52335273D01*
X13891176Y-52523866D01*
X13871859Y-52719999D01*
X7745637Y-52719999D01*
X7735224Y-52614268D01*
X7678014Y-52425673D01*
X7585110Y-52251862D01*
X7460083Y-52099517D01*
X7307738Y-51974490D01*
X7138612Y-51884090D01*
X7133926Y-51881585D01*
X6945333Y-51824376D01*
X6749200Y-51805059D01*
X6553066Y-51824376D01*
X6364473Y-51881585D01*
X6190663Y-51974489D01*
X6038317Y-52099517D01*
X5913289Y-52251863D01*
X5820385Y-52425673D01*
X5763176Y-52614266D01*
X5743859Y-52810400D01*
X-42000Y-52810400D01*
X-42000Y-50270399D01*
X5743859Y-50270399D01*
X5763176Y-50466533D01*
X5820385Y-50655126D01*
X5820386Y-50655127D01*
X5913290Y-50828938D01*
X6038317Y-50981283D01*
X6190662Y-51106310D01*
X6364473Y-51199214D01*
X6553068Y-51256424D01*
X6749200Y-51275741D01*
X6945332Y-51256424D01*
X7133927Y-51199214D01*
X7307738Y-51106310D01*
X7460083Y-50981283D01*
X7585110Y-50828938D01*
X7678014Y-50655127D01*
X7735224Y-50466532D01*
X7754541Y-50270400D01*
X7745638Y-50180000D01*
X13871859Y-50180000D01*
X13891176Y-50376133D01*
X13948385Y-50564726D01*
X13948386Y-50564727D01*
X14041290Y-50738538D01*
X14166317Y-50890883D01*
X14318662Y-51015910D01*
X14492473Y-51108814D01*
X14681068Y-51166024D01*
X14877200Y-51185341D01*
X15073332Y-51166024D01*
X15261927Y-51108814D01*
X15381649Y-51044821D01*
X29119500Y-51044821D01*
X29128233Y-51088723D01*
X29161495Y-51138504D01*
X29211276Y-51171766D01*
X29211278Y-51171767D01*
X29244277Y-51178331D01*
X29255179Y-51180500D01*
X29255180Y-51180500D01*
X30984820Y-51180500D01*
X30984821Y-51180500D01*
X30993553Y-51178762D01*
X31028722Y-51171767D01*
X31078504Y-51138504D01*
X31111767Y-51088722D01*
X31120500Y-51044821D01*
X37247500Y-51044821D01*
X37256233Y-51088723D01*
X37289495Y-51138504D01*
X37339276Y-51171766D01*
X37339278Y-51171767D01*
X37372277Y-51178331D01*
X37383179Y-51180500D01*
X37383180Y-51180500D01*
X39112820Y-51180500D01*
X39112821Y-51180500D01*
X39121553Y-51178762D01*
X39156722Y-51171767D01*
X39206504Y-51138504D01*
X39239767Y-51088722D01*
X39248500Y-51044820D01*
X39248500Y-49315180D01*
X39239767Y-49271278D01*
X39235612Y-49265059D01*
X39206504Y-49221495D01*
X39156723Y-49188233D01*
X39112821Y-49179500D01*
X39112820Y-49179500D01*
X37383180Y-49179500D01*
X37383179Y-49179500D01*
X37339276Y-49188233D01*
X37289495Y-49221495D01*
X37256233Y-49271276D01*
X37247500Y-49315179D01*
X37247500Y-51044821D01*
X31120500Y-51044821D01*
X31120500Y-51044820D01*
X31120500Y-49315180D01*
X31111767Y-49271278D01*
X31107612Y-49265059D01*
X31078504Y-49221495D01*
X31028723Y-49188233D01*
X30984821Y-49179500D01*
X30984820Y-49179500D01*
X29255180Y-49179500D01*
X29255179Y-49179500D01*
X29211276Y-49188233D01*
X29161495Y-49221495D01*
X29128233Y-49271276D01*
X29119500Y-49315179D01*
X29119500Y-51044821D01*
X15381649Y-51044821D01*
X15435738Y-51015910D01*
X15588083Y-50890883D01*
X15713110Y-50738538D01*
X15806014Y-50564727D01*
X15863224Y-50376132D01*
X15882541Y-50180000D01*
X15863224Y-49983868D01*
X15806014Y-49795273D01*
X15713110Y-49621462D01*
X15588083Y-49469117D01*
X15435738Y-49344090D01*
X15381651Y-49315180D01*
X15261926Y-49251185D01*
X15073333Y-49193976D01*
X14877200Y-49174659D01*
X14681066Y-49193976D01*
X14492473Y-49251185D01*
X14318663Y-49344089D01*
X14166317Y-49469117D01*
X14041289Y-49621463D01*
X13948385Y-49795273D01*
X13891176Y-49983866D01*
X13871859Y-50180000D01*
X7745638Y-50180000D01*
X7735224Y-50074268D01*
X7678014Y-49885673D01*
X7585110Y-49711862D01*
X7460083Y-49559517D01*
X7307738Y-49434490D01*
X7138612Y-49344090D01*
X7133926Y-49341585D01*
X6945333Y-49284376D01*
X6749200Y-49265059D01*
X6553066Y-49284376D01*
X6364473Y-49341585D01*
X6190663Y-49434489D01*
X6038317Y-49559517D01*
X5913289Y-49711863D01*
X5820385Y-49885673D01*
X5763176Y-50074266D01*
X5743859Y-50270399D01*
X-42000Y-50270399D01*
X-42000Y-47628800D01*
X36391995Y-47628800D01*
X36413080Y-47761924D01*
X36474272Y-47882021D01*
X36569578Y-47977327D01*
X36569580Y-47977328D01*
X36689674Y-48038519D01*
X36822800Y-48059604D01*
X36955926Y-48038519D01*
X37076020Y-47977328D01*
X37171328Y-47882020D01*
X37232519Y-47761926D01*
X37253604Y-47628800D01*
X37232519Y-47495674D01*
X37171328Y-47375580D01*
X37171327Y-47375578D01*
X37076021Y-47280272D01*
X36955924Y-47219080D01*
X36822800Y-47197995D01*
X36689675Y-47219080D01*
X36569578Y-47280272D01*
X36474272Y-47375578D01*
X36413080Y-47495675D01*
X36391995Y-47628800D01*
X-42000Y-47628800D01*
X-42000Y-47094800D01*
X35172795Y-47094800D01*
X35193880Y-47227924D01*
X35255072Y-47348021D01*
X35350378Y-47443327D01*
X35350380Y-47443328D01*
X35470474Y-47504519D01*
X35603600Y-47525604D01*
X35736726Y-47504519D01*
X35856820Y-47443328D01*
X35952128Y-47348020D01*
X36013319Y-47227926D01*
X36034404Y-47094800D01*
X36013319Y-46961674D01*
X35952128Y-46841580D01*
X35952127Y-46841578D01*
X35856821Y-46746272D01*
X35736724Y-46685080D01*
X35603600Y-46663995D01*
X35470475Y-46685080D01*
X35350378Y-46746272D01*
X35255072Y-46841578D01*
X35193880Y-46961675D01*
X35172795Y-47094800D01*
X-42000Y-47094800D01*
X-42000Y-46593300D01*
X33945831Y-46593300D01*
X33966916Y-46726424D01*
X34028108Y-46846521D01*
X34123414Y-46941827D01*
X34123416Y-46941828D01*
X34243510Y-47003019D01*
X34376636Y-47024104D01*
X34509762Y-47003019D01*
X34629856Y-46941828D01*
X34725164Y-46846520D01*
X34786355Y-46726426D01*
X34807440Y-46593300D01*
X34786355Y-46460174D01*
X34725164Y-46340080D01*
X34725163Y-46340078D01*
X34629857Y-46244772D01*
X34509760Y-46183580D01*
X34376636Y-46162495D01*
X34243511Y-46183580D01*
X34123414Y-46244772D01*
X34028108Y-46340078D01*
X33966916Y-46460175D01*
X33945831Y-46593300D01*
X-42000Y-46593300D01*
X-42000Y-46091799D01*
X32734395Y-46091799D01*
X32755480Y-46224924D01*
X32816672Y-46345021D01*
X32911978Y-46440327D01*
X32911980Y-46440328D01*
X33032074Y-46501519D01*
X33165200Y-46522604D01*
X33298326Y-46501519D01*
X33418420Y-46440328D01*
X33513728Y-46345020D01*
X33574919Y-46224926D01*
X33596004Y-46091800D01*
X33574919Y-45958674D01*
X33513728Y-45838580D01*
X33513727Y-45838578D01*
X33418421Y-45743272D01*
X33298324Y-45682080D01*
X33165200Y-45660995D01*
X33032075Y-45682080D01*
X32911978Y-45743272D01*
X32816672Y-45838578D01*
X32755480Y-45958675D01*
X32734395Y-46091799D01*
X-42000Y-46091799D01*
X-42000Y-42041299D01*
X12007185Y-42041299D01*
X12028270Y-42174424D01*
X12089462Y-42294521D01*
X12184768Y-42389827D01*
X12184770Y-42389828D01*
X12304864Y-42451019D01*
X12402450Y-42466475D01*
X12424731Y-42470004D01*
X12472869Y-42488481D01*
X12509329Y-42524941D01*
X12527807Y-42573078D01*
X12537080Y-42631624D01*
X12598272Y-42751721D01*
X12693578Y-42847027D01*
X12693580Y-42847028D01*
X12813674Y-42908219D01*
X12842790Y-42912830D01*
X12966198Y-42932377D01*
X12965970Y-42933812D01*
X13001173Y-42937512D01*
X13053102Y-42975239D01*
X13079210Y-43033877D01*
X13095880Y-43139124D01*
X13157072Y-43259221D01*
X13252378Y-43354527D01*
X13252380Y-43354528D01*
X13372474Y-43415719D01*
X13395293Y-43419333D01*
X13483258Y-43433266D01*
X13531395Y-43451744D01*
X13567855Y-43488203D01*
X13586333Y-43536340D01*
X13603880Y-43647124D01*
X13665072Y-43767221D01*
X13760378Y-43862527D01*
X13760380Y-43862528D01*
X13880474Y-43923719D01*
X13909590Y-43928330D01*
X14032998Y-43947877D01*
X14032767Y-43949331D01*
X14067895Y-43953023D01*
X14119825Y-43990751D01*
X14145933Y-44049389D01*
X14162680Y-44155124D01*
X14223872Y-44275221D01*
X14319178Y-44370527D01*
X14319180Y-44370528D01*
X14439274Y-44431719D01*
X14475496Y-44437456D01*
X14557188Y-44450395D01*
X14605325Y-44468873D01*
X14641785Y-44505333D01*
X14660263Y-44553470D01*
X14676680Y-44657124D01*
X14737872Y-44777221D01*
X14833178Y-44872527D01*
X14833180Y-44872528D01*
X14953274Y-44933719D01*
X14972918Y-44936830D01*
X15030034Y-44945877D01*
X15078171Y-44964355D01*
X15114631Y-45000814D01*
X15133109Y-45048951D01*
X15147925Y-45142493D01*
X15209117Y-45262590D01*
X15304423Y-45357896D01*
X15304425Y-45357897D01*
X15424519Y-45419088D01*
X15457986Y-45424388D01*
X15506120Y-45442865D01*
X15542581Y-45479325D01*
X15561059Y-45527463D01*
X15585080Y-45679124D01*
X15646272Y-45799221D01*
X15741578Y-45894527D01*
X15741580Y-45894528D01*
X15861674Y-45955719D01*
X15994800Y-45976804D01*
X16127926Y-45955719D01*
X16248020Y-45894528D01*
X16343328Y-45799220D01*
X16404519Y-45679126D01*
X16418588Y-45590300D01*
X31667595Y-45590300D01*
X31688680Y-45723424D01*
X31749872Y-45843521D01*
X31845178Y-45938827D01*
X31845180Y-45938828D01*
X31965274Y-46000019D01*
X32098400Y-46021104D01*
X32231526Y-46000019D01*
X32351620Y-45938828D01*
X32446928Y-45843520D01*
X32508119Y-45723426D01*
X32529204Y-45590300D01*
X32508119Y-45457174D01*
X32446928Y-45337080D01*
X32446927Y-45337078D01*
X32351621Y-45241772D01*
X32231524Y-45180580D01*
X32098400Y-45159495D01*
X31965275Y-45180580D01*
X31845178Y-45241772D01*
X31749872Y-45337078D01*
X31688680Y-45457175D01*
X31667595Y-45590300D01*
X16418588Y-45590300D01*
X16425604Y-45546000D01*
X16404519Y-45412874D01*
X16343328Y-45292780D01*
X16343327Y-45292778D01*
X16248021Y-45197472D01*
X16127924Y-45136280D01*
X16094460Y-45130980D01*
X16046323Y-45112502D01*
X16022621Y-45088800D01*
X30600795Y-45088800D01*
X30621880Y-45221924D01*
X30683072Y-45342021D01*
X30778378Y-45437327D01*
X30778380Y-45437328D01*
X30898474Y-45498519D01*
X31031600Y-45519604D01*
X31164726Y-45498519D01*
X31284820Y-45437328D01*
X31380128Y-45342020D01*
X31441319Y-45221926D01*
X31462404Y-45088800D01*
X31441319Y-44955674D01*
X31380128Y-44835580D01*
X31380127Y-44835578D01*
X31284821Y-44740272D01*
X31164724Y-44679080D01*
X31031600Y-44657995D01*
X30898475Y-44679080D01*
X30778378Y-44740272D01*
X30683072Y-44835578D01*
X30621880Y-44955675D01*
X30600795Y-45088800D01*
X16022621Y-45088800D01*
X16009863Y-45076042D01*
X15991385Y-45027905D01*
X15967364Y-44876244D01*
X15967364Y-44876243D01*
X15906173Y-44756149D01*
X15906172Y-44756147D01*
X15810866Y-44660841D01*
X15690769Y-44599649D01*
X15614009Y-44587491D01*
X15596578Y-44580800D01*
X24809595Y-44580800D01*
X24830680Y-44713924D01*
X24891872Y-44834021D01*
X24987178Y-44929327D01*
X24987180Y-44929328D01*
X25107274Y-44990519D01*
X25240400Y-45011604D01*
X25373526Y-44990519D01*
X25493620Y-44929328D01*
X25588928Y-44834020D01*
X25650119Y-44713926D01*
X25671204Y-44580800D01*
X25650119Y-44447674D01*
X25588928Y-44327580D01*
X25588927Y-44327578D01*
X25493621Y-44232272D01*
X25373524Y-44171080D01*
X25240400Y-44149995D01*
X25107275Y-44171080D01*
X24987178Y-44232272D01*
X24891872Y-44327578D01*
X24830680Y-44447675D01*
X24809595Y-44580800D01*
X15596578Y-44580800D01*
X15565872Y-44569013D01*
X15529413Y-44532553D01*
X15510935Y-44484416D01*
X15496119Y-44390875D01*
X15496119Y-44390874D01*
X15434928Y-44270780D01*
X15434927Y-44270778D01*
X15339621Y-44175472D01*
X15219524Y-44114280D01*
X15101610Y-44095604D01*
X15053473Y-44077126D01*
X15017013Y-44040666D01*
X14998536Y-43992528D01*
X14987638Y-43923719D01*
X14982119Y-43888874D01*
X14920928Y-43768780D01*
X14920927Y-43768778D01*
X14865114Y-43712965D01*
X25620130Y-43712965D01*
X25641215Y-43846089D01*
X25702407Y-43966186D01*
X25797713Y-44061492D01*
X25797715Y-44061493D01*
X25917809Y-44122684D01*
X26050935Y-44143769D01*
X26184061Y-44122684D01*
X26304155Y-44061493D01*
X26399463Y-43966185D01*
X26460654Y-43846091D01*
X26481739Y-43712965D01*
X26460654Y-43579839D01*
X26399463Y-43459745D01*
X26399462Y-43459743D01*
X26304156Y-43364437D01*
X26184059Y-43303245D01*
X26050935Y-43282160D01*
X25917810Y-43303245D01*
X25797713Y-43364437D01*
X25702407Y-43459743D01*
X25641215Y-43579840D01*
X25620130Y-43712965D01*
X14865114Y-43712965D01*
X14825621Y-43673472D01*
X14705524Y-43612280D01*
X14553002Y-43588123D01*
X14553232Y-43586668D01*
X14518095Y-43582973D01*
X14466171Y-43545244D01*
X14440066Y-43486609D01*
X14423319Y-43380875D01*
X14423319Y-43380874D01*
X14362128Y-43260780D01*
X14362127Y-43260778D01*
X14310549Y-43209200D01*
X26689195Y-43209200D01*
X26710280Y-43342324D01*
X26771472Y-43462421D01*
X26866778Y-43557727D01*
X26866780Y-43557728D01*
X26986874Y-43618919D01*
X27120000Y-43640004D01*
X27253126Y-43618919D01*
X27373220Y-43557728D01*
X27468528Y-43462420D01*
X27529719Y-43342326D01*
X27550804Y-43209200D01*
X27535602Y-43113218D01*
X27540144Y-43055503D01*
X27570394Y-43006140D01*
X27619757Y-42975890D01*
X27677473Y-42971348D01*
X27729600Y-42979604D01*
X27862726Y-42958519D01*
X27982820Y-42897328D01*
X28078128Y-42802020D01*
X28139319Y-42681926D01*
X28160404Y-42548800D01*
X28139319Y-42415674D01*
X28078128Y-42295580D01*
X28078127Y-42295578D01*
X27982821Y-42200272D01*
X27862724Y-42139080D01*
X27729600Y-42117995D01*
X27596475Y-42139080D01*
X27476378Y-42200272D01*
X27381072Y-42295578D01*
X27319880Y-42415675D01*
X27298795Y-42548800D01*
X27313997Y-42644780D01*
X27309455Y-42702496D01*
X27279205Y-42751859D01*
X27229842Y-42782109D01*
X27172127Y-42786651D01*
X27120000Y-42778395D01*
X26986875Y-42799480D01*
X26866778Y-42860672D01*
X26771472Y-42955978D01*
X26710280Y-43076075D01*
X26689195Y-43209200D01*
X14310549Y-43209200D01*
X14266821Y-43165472D01*
X14146724Y-43104280D01*
X14035940Y-43086733D01*
X13987803Y-43068255D01*
X13951344Y-43031795D01*
X13932866Y-42983658D01*
X13915319Y-42872875D01*
X13915319Y-42872874D01*
X13854128Y-42752780D01*
X13854127Y-42752778D01*
X13758821Y-42657472D01*
X13645238Y-42599599D01*
X25215995Y-42599599D01*
X25237080Y-42732724D01*
X25298272Y-42852821D01*
X25393578Y-42948127D01*
X25393580Y-42948128D01*
X25513674Y-43009319D01*
X25646800Y-43030404D01*
X25779926Y-43009319D01*
X25900020Y-42948128D01*
X25995328Y-42852820D01*
X26056519Y-42732726D01*
X26077604Y-42599600D01*
X26056519Y-42466474D01*
X25995328Y-42346380D01*
X25995327Y-42346378D01*
X25900021Y-42251072D01*
X25779924Y-42189880D01*
X25646800Y-42168795D01*
X25513675Y-42189880D01*
X25393578Y-42251072D01*
X25298272Y-42346378D01*
X25237080Y-42466475D01*
X25215995Y-42599599D01*
X13645238Y-42599599D01*
X13638724Y-42596280D01*
X13486202Y-42572123D01*
X13486429Y-42570687D01*
X13451224Y-42566988D01*
X13399296Y-42529260D01*
X13373189Y-42470622D01*
X13356519Y-42365375D01*
X13356519Y-42365374D01*
X13295328Y-42245280D01*
X13295327Y-42245278D01*
X13200021Y-42149972D01*
X13079924Y-42088780D01*
X12960056Y-42069794D01*
X12911919Y-42051316D01*
X12875460Y-42014856D01*
X12856982Y-41966719D01*
X12847709Y-41908175D01*
X12847709Y-41908174D01*
X12786518Y-41788080D01*
X12786517Y-41788078D01*
X12691211Y-41692772D01*
X12571114Y-41631580D01*
X12437990Y-41610495D01*
X12304865Y-41631580D01*
X12184768Y-41692772D01*
X12089462Y-41788078D01*
X12028270Y-41908175D01*
X12007185Y-42041299D01*
X-42000Y-42041299D01*
X-42000Y-40466000D01*
X22015595Y-40466000D01*
X22036680Y-40599124D01*
X22097872Y-40719221D01*
X22193178Y-40814527D01*
X22193180Y-40814528D01*
X22313274Y-40875719D01*
X22446400Y-40896804D01*
X22579526Y-40875719D01*
X22699620Y-40814528D01*
X22794928Y-40719220D01*
X22856119Y-40599126D01*
X22861112Y-40567600D01*
X23996795Y-40567600D01*
X24017880Y-40700724D01*
X24079072Y-40820821D01*
X24174378Y-40916127D01*
X24174380Y-40916128D01*
X24294474Y-40977319D01*
X24427600Y-40998404D01*
X24560726Y-40977319D01*
X24680820Y-40916128D01*
X24776128Y-40820820D01*
X24837319Y-40700726D01*
X24840380Y-40681395D01*
X24866486Y-40622760D01*
X24918416Y-40585031D01*
X24982252Y-40578322D01*
X24986400Y-40578979D01*
X24986401Y-40578978D01*
X24986402Y-40578979D01*
X25058244Y-40567600D01*
X25119526Y-40557894D01*
X25239620Y-40496703D01*
X25334928Y-40401395D01*
X25396119Y-40281301D01*
X25405490Y-40222130D01*
X25431598Y-40163492D01*
X25483526Y-40125764D01*
X25547362Y-40119055D01*
X25646800Y-40134804D01*
X25779926Y-40113719D01*
X25900020Y-40052528D01*
X25995328Y-39957220D01*
X26056519Y-39837126D01*
X26077604Y-39704000D01*
X26077517Y-39703453D01*
X26065891Y-39630045D01*
X26056519Y-39570874D01*
X25995328Y-39450780D01*
X25995327Y-39450778D01*
X25900021Y-39355472D01*
X25779924Y-39294280D01*
X25646800Y-39273195D01*
X25513675Y-39294280D01*
X25393578Y-39355472D01*
X25298272Y-39450778D01*
X25237080Y-39570875D01*
X25227708Y-39630045D01*
X25201601Y-39688682D01*
X25149673Y-39726410D01*
X25085838Y-39733119D01*
X24986400Y-39717370D01*
X24853275Y-39738455D01*
X24733178Y-39799647D01*
X24637872Y-39894953D01*
X24576680Y-40015050D01*
X24573619Y-40034378D01*
X24547512Y-40093015D01*
X24495584Y-40130743D01*
X24431750Y-40137453D01*
X24427598Y-40136795D01*
X24294475Y-40157880D01*
X24174378Y-40219072D01*
X24079072Y-40314378D01*
X24017880Y-40434475D01*
X23996795Y-40567600D01*
X22861112Y-40567600D01*
X22866259Y-40535098D01*
X22892367Y-40476459D01*
X22944296Y-40438731D01*
X23008130Y-40432022D01*
X23056000Y-40439604D01*
X23056000Y-40439603D01*
X23056001Y-40439604D01*
X23103871Y-40432022D01*
X23189126Y-40418519D01*
X23309220Y-40357328D01*
X23404528Y-40262020D01*
X23465719Y-40141926D01*
X23470616Y-40111004D01*
X23492775Y-40057514D01*
X23536807Y-40019913D01*
X23593111Y-40006404D01*
X23614288Y-40011492D01*
X23614676Y-40009047D01*
X23767200Y-40033204D01*
X23900326Y-40012119D01*
X24020420Y-39950928D01*
X24115728Y-39855620D01*
X24176919Y-39735526D01*
X24198004Y-39602400D01*
X24176919Y-39469274D01*
X24115728Y-39349180D01*
X24115727Y-39349178D01*
X24020421Y-39253872D01*
X23900324Y-39192680D01*
X23767200Y-39171595D01*
X23634075Y-39192680D01*
X23513978Y-39253872D01*
X23418672Y-39349178D01*
X23357480Y-39469275D01*
X23352583Y-39500194D01*
X23330426Y-39553683D01*
X23286401Y-39591282D01*
X23230104Y-39604795D01*
X23208911Y-39599706D01*
X23208524Y-39602153D01*
X23056000Y-39577995D01*
X22922875Y-39599080D01*
X22802778Y-39660272D01*
X22707472Y-39755578D01*
X22646280Y-39875675D01*
X22636139Y-39939703D01*
X22610032Y-39998340D01*
X22558103Y-40036068D01*
X22494268Y-40042777D01*
X22446399Y-40035195D01*
X22313275Y-40056280D01*
X22193178Y-40117472D01*
X22097872Y-40212778D01*
X22036680Y-40332875D01*
X22015595Y-40466000D01*
X-42000Y-40466000D01*
X-42000Y-36967000D01*
X39528659Y-36967000D01*
X39547976Y-37163133D01*
X39605185Y-37351726D01*
X39605186Y-37351727D01*
X39698090Y-37525538D01*
X39823117Y-37677883D01*
X39975462Y-37802910D01*
X40149273Y-37895814D01*
X40337868Y-37953024D01*
X40534000Y-37972341D01*
X40730132Y-37953024D01*
X40918727Y-37895814D01*
X41092538Y-37802910D01*
X41244883Y-37677883D01*
X41369910Y-37525538D01*
X41462814Y-37351727D01*
X41520024Y-37163132D01*
X41539341Y-36967000D01*
X41520024Y-36770868D01*
X41462814Y-36582273D01*
X41369910Y-36408462D01*
X41244883Y-36256117D01*
X41092538Y-36131090D01*
X41070091Y-36119091D01*
X40918726Y-36038185D01*
X40730133Y-35980976D01*
X40534000Y-35961659D01*
X40337866Y-35980976D01*
X40149273Y-36038185D01*
X39975463Y-36131089D01*
X39823117Y-36256117D01*
X39698089Y-36408463D01*
X39605185Y-36582273D01*
X39547976Y-36770866D01*
X39528659Y-36967000D01*
X-42000Y-36967000D01*
X-42000Y-35291821D01*
X39533500Y-35291821D01*
X39542233Y-35335723D01*
X39575495Y-35385504D01*
X39625276Y-35418766D01*
X39625278Y-35418767D01*
X39658277Y-35425331D01*
X39669179Y-35427500D01*
X39669180Y-35427500D01*
X41398820Y-35427500D01*
X41398821Y-35427500D01*
X41407553Y-35425762D01*
X41442722Y-35418767D01*
X41492504Y-35385504D01*
X41525767Y-35335722D01*
X41534500Y-35291820D01*
X41534500Y-33562180D01*
X41525767Y-33518278D01*
X41525766Y-33518276D01*
X41492504Y-33468495D01*
X41442723Y-33435233D01*
X41398821Y-33426500D01*
X41398820Y-33426500D01*
X39669180Y-33426500D01*
X39669179Y-33426500D01*
X39625276Y-33435233D01*
X39575495Y-33468495D01*
X39542233Y-33518276D01*
X39533500Y-33562179D01*
X39533500Y-35291821D01*
X-42000Y-35291821D01*
X-42000Y-27512000D01*
X35292659Y-27512000D01*
X35311976Y-27708133D01*
X35369185Y-27896726D01*
X35369186Y-27896727D01*
X35462090Y-28070538D01*
X35587117Y-28222883D01*
X35739462Y-28347910D01*
X35913273Y-28440814D01*
X36101868Y-28498024D01*
X36298000Y-28517341D01*
X36494132Y-28498024D01*
X36682727Y-28440814D01*
X36856538Y-28347910D01*
X37008883Y-28222883D01*
X37133910Y-28070538D01*
X37226814Y-27896727D01*
X37284024Y-27708132D01*
X37303341Y-27512000D01*
X37284024Y-27315868D01*
X37226814Y-27127273D01*
X37133910Y-26953462D01*
X37008883Y-26801117D01*
X36856538Y-26676090D01*
X36834091Y-26664091D01*
X36682726Y-26583185D01*
X36494133Y-26525976D01*
X36298000Y-26506659D01*
X36101866Y-26525976D01*
X35913273Y-26583185D01*
X35739463Y-26676089D01*
X35587117Y-26801117D01*
X35462089Y-26953463D01*
X35369185Y-27127273D01*
X35311976Y-27315866D01*
X35292659Y-27512000D01*
X-42000Y-27512000D01*
X-42000Y-25194400D01*
X31037664Y-25194400D01*
X31094869Y-25407892D01*
X31194699Y-25621976D01*
X31330193Y-25815481D01*
X31497218Y-25982506D01*
X31690723Y-26118000D01*
X31904807Y-26217830D01*
X32118299Y-26275035D01*
X32118300Y-26275036D01*
X32118300Y-25194400D01*
X32618300Y-25194400D01*
X32618300Y-26275035D01*
X32831792Y-26217830D01*
X33045876Y-26118000D01*
X33239381Y-25982506D01*
X33406406Y-25815481D01*
X33541900Y-25621976D01*
X33641730Y-25407892D01*
X33698936Y-25194400D01*
X32618300Y-25194400D01*
X32118300Y-25194400D01*
X31037664Y-25194400D01*
X-42000Y-25194400D01*
X-42000Y-24972000D01*
X35292659Y-24972000D01*
X35311976Y-25168133D01*
X35369185Y-25356726D01*
X35369186Y-25356727D01*
X35462090Y-25530538D01*
X35587117Y-25682883D01*
X35739462Y-25807910D01*
X35913273Y-25900814D01*
X36101868Y-25958024D01*
X36298000Y-25977341D01*
X36494132Y-25958024D01*
X36682727Y-25900814D01*
X36856538Y-25807910D01*
X37008883Y-25682883D01*
X37133910Y-25530538D01*
X37226814Y-25356727D01*
X37284024Y-25168132D01*
X37303341Y-24972000D01*
X37284024Y-24775868D01*
X37226814Y-24587273D01*
X37133910Y-24413462D01*
X37008883Y-24261117D01*
X36856538Y-24136090D01*
X36739106Y-24073321D01*
X36682726Y-24043185D01*
X36494133Y-23985976D01*
X36298000Y-23966659D01*
X36101866Y-23985976D01*
X35913273Y-24043185D01*
X35739463Y-24136089D01*
X35587117Y-24261117D01*
X35462089Y-24413463D01*
X35369185Y-24587273D01*
X35311976Y-24775866D01*
X35292659Y-24972000D01*
X-42000Y-24972000D01*
X-42000Y-24694400D01*
X31037664Y-24694400D01*
X33698936Y-24694400D01*
X33698935Y-24694399D01*
X33641730Y-24480907D01*
X33541899Y-24266821D01*
X33406409Y-24073321D01*
X33239381Y-23906293D01*
X33045876Y-23770799D01*
X32831792Y-23670969D01*
X32618191Y-23613735D01*
X32563179Y-23582213D01*
X32530941Y-23527619D01*
X32529903Y-23464224D01*
X32560338Y-23408604D01*
X32614285Y-23375300D01*
X32753027Y-23333214D01*
X32926838Y-23240310D01*
X33079183Y-23115283D01*
X33204210Y-22962938D01*
X33297114Y-22789127D01*
X33354324Y-22600532D01*
X33370923Y-22432000D01*
X35292659Y-22432000D01*
X35311976Y-22628133D01*
X35369185Y-22816726D01*
X35369186Y-22816727D01*
X35462090Y-22990538D01*
X35587117Y-23142883D01*
X35739462Y-23267910D01*
X35913273Y-23360814D01*
X36101868Y-23418024D01*
X36298000Y-23437341D01*
X36494132Y-23418024D01*
X36682727Y-23360814D01*
X36856538Y-23267910D01*
X37008883Y-23142883D01*
X37133910Y-22990538D01*
X37226814Y-22816727D01*
X37284024Y-22628132D01*
X37303341Y-22432000D01*
X37284024Y-22235868D01*
X37226814Y-22047273D01*
X37133910Y-21873462D01*
X37008883Y-21721117D01*
X36856538Y-21596090D01*
X36804900Y-21568489D01*
X36682726Y-21503185D01*
X36494133Y-21445976D01*
X36396065Y-21436317D01*
X36298000Y-21426659D01*
X36297999Y-21426659D01*
X36101866Y-21445976D01*
X35913273Y-21503185D01*
X35739463Y-21596089D01*
X35587117Y-21721117D01*
X35462089Y-21873463D01*
X35369185Y-22047273D01*
X35311976Y-22235866D01*
X35292659Y-22432000D01*
X33370923Y-22432000D01*
X33373641Y-22404400D01*
X33354324Y-22208268D01*
X33297114Y-22019673D01*
X33204210Y-21845862D01*
X33079183Y-21693517D01*
X32926838Y-21568490D01*
X32804663Y-21503186D01*
X32753026Y-21475585D01*
X32564433Y-21418376D01*
X32368300Y-21399059D01*
X32172166Y-21418376D01*
X31983573Y-21475585D01*
X31809763Y-21568489D01*
X31657417Y-21693517D01*
X31532389Y-21845863D01*
X31439485Y-22019673D01*
X31382276Y-22208266D01*
X31362959Y-22404400D01*
X31382276Y-22600533D01*
X31439485Y-22789126D01*
X31520392Y-22940491D01*
X31532390Y-22962938D01*
X31657417Y-23115283D01*
X31809762Y-23240310D01*
X31983567Y-23333211D01*
X31983573Y-23333214D01*
X32122310Y-23375300D01*
X32176261Y-23408604D01*
X32206696Y-23464224D01*
X32205658Y-23527619D01*
X32173420Y-23582213D01*
X32118408Y-23613735D01*
X31904807Y-23670969D01*
X31690721Y-23770800D01*
X31497221Y-23906290D01*
X31330190Y-24073321D01*
X31194700Y-24266821D01*
X31094869Y-24480907D01*
X31037664Y-24694399D01*
X31037664Y-24694400D01*
X-42000Y-24694400D01*
X-42000Y-20729221D01*
X31367800Y-20729221D01*
X31376533Y-20773123D01*
X31409795Y-20822904D01*
X31459576Y-20856166D01*
X31459578Y-20856167D01*
X31492577Y-20862731D01*
X31503479Y-20864900D01*
X31503480Y-20864900D01*
X33233120Y-20864900D01*
X33233121Y-20864900D01*
X33241854Y-20863162D01*
X33277022Y-20856167D01*
X33326804Y-20822904D01*
X33360067Y-20773122D01*
X33363310Y-20756821D01*
X35297500Y-20756821D01*
X35306233Y-20800723D01*
X35339495Y-20850504D01*
X35389276Y-20883766D01*
X35389278Y-20883767D01*
X35422277Y-20890331D01*
X35433179Y-20892500D01*
X35433180Y-20892500D01*
X37162820Y-20892500D01*
X37162821Y-20892500D01*
X37171553Y-20890762D01*
X37206722Y-20883767D01*
X37256504Y-20850504D01*
X37289767Y-20800722D01*
X37298500Y-20756820D01*
X37298500Y-19027180D01*
X37289767Y-18983278D01*
X37289766Y-18983276D01*
X37256504Y-18933495D01*
X37206723Y-18900233D01*
X37162821Y-18891500D01*
X37162820Y-18891500D01*
X35433180Y-18891500D01*
X35433179Y-18891500D01*
X35389276Y-18900233D01*
X35339495Y-18933495D01*
X35306233Y-18983276D01*
X35297500Y-19027179D01*
X35297500Y-20756821D01*
X33363310Y-20756821D01*
X33368800Y-20729220D01*
X33368800Y-18999580D01*
X33360067Y-18955678D01*
X33345245Y-18933495D01*
X33326804Y-18905895D01*
X33277023Y-18872633D01*
X33233121Y-18863900D01*
X33233120Y-18863900D01*
X31503480Y-18863900D01*
X31503479Y-18863900D01*
X31459576Y-18872633D01*
X31409795Y-18905895D01*
X31376533Y-18955676D01*
X31367800Y-18999579D01*
X31367800Y-20729221D01*
X-42000Y-20729221D01*
X-42000Y-14913600D01*
X17595995Y-14913600D01*
X17617080Y-15046724D01*
X17678272Y-15166821D01*
X17773578Y-15262127D01*
X17773580Y-15262128D01*
X17893674Y-15323319D01*
X18026800Y-15344404D01*
X18159926Y-15323319D01*
X18280020Y-15262128D01*
X18375328Y-15166820D01*
X18436519Y-15046726D01*
X18449558Y-14964400D01*
X18713595Y-14964400D01*
X18734680Y-15097524D01*
X18795872Y-15217621D01*
X18891178Y-15312927D01*
X18891180Y-15312928D01*
X19011274Y-15374119D01*
X19144400Y-15395204D01*
X19277526Y-15374119D01*
X19397620Y-15312928D01*
X19492928Y-15217620D01*
X19554119Y-15097526D01*
X19555708Y-15087492D01*
X19583890Y-15026361D01*
X19639862Y-14988961D01*
X19707128Y-14986318D01*
X19765862Y-15019211D01*
X19805578Y-15058927D01*
X19805580Y-15058928D01*
X19925674Y-15120119D01*
X20058800Y-15141204D01*
X20191926Y-15120119D01*
X20312020Y-15058928D01*
X20407328Y-14963620D01*
X20444297Y-14891064D01*
X20869730Y-14891064D01*
X20890815Y-15024189D01*
X20952007Y-15144286D01*
X21047313Y-15239592D01*
X21047315Y-15239593D01*
X21167409Y-15300784D01*
X21300535Y-15321869D01*
X21433661Y-15300784D01*
X21553755Y-15239593D01*
X21575728Y-15217620D01*
X21602824Y-15190525D01*
X21658411Y-15158431D01*
X21722599Y-15158431D01*
X21778186Y-15190525D01*
X21792883Y-15205222D01*
X21792885Y-15205223D01*
X21912979Y-15266414D01*
X22046105Y-15287499D01*
X22179231Y-15266414D01*
X22299325Y-15205223D01*
X22365937Y-15138610D01*
X22409179Y-15110528D01*
X22460106Y-15102462D01*
X22509909Y-15115806D01*
X22618074Y-15170919D01*
X22751200Y-15192004D01*
X22884326Y-15170919D01*
X23004420Y-15109728D01*
X23099728Y-15014420D01*
X23160919Y-14894326D01*
X23182004Y-14761200D01*
X23160919Y-14628074D01*
X23099728Y-14507980D01*
X23099727Y-14507979D01*
X23099455Y-14507445D01*
X23069619Y-14458760D01*
X23065075Y-14401043D01*
X23087231Y-14347554D01*
X23131254Y-14309954D01*
X23156820Y-14296928D01*
X23174153Y-14279595D01*
X23222319Y-14231430D01*
X23277906Y-14199336D01*
X23342094Y-14199336D01*
X23397681Y-14231430D01*
X23463178Y-14296927D01*
X23463180Y-14296928D01*
X23583274Y-14358119D01*
X23716400Y-14379204D01*
X23849526Y-14358119D01*
X23969620Y-14296928D01*
X23986953Y-14279595D01*
X24009719Y-14256830D01*
X24065306Y-14224736D01*
X24129494Y-14224736D01*
X24185081Y-14256830D01*
X24225178Y-14296927D01*
X24225180Y-14296928D01*
X24345274Y-14358119D01*
X24478400Y-14379204D01*
X24611526Y-14358119D01*
X24731620Y-14296928D01*
X24748953Y-14279595D01*
X24797119Y-14231430D01*
X24852706Y-14199336D01*
X24916894Y-14199336D01*
X24972481Y-14231430D01*
X25037978Y-14296927D01*
X25037980Y-14296928D01*
X25158074Y-14358119D01*
X25291200Y-14379204D01*
X25424326Y-14358119D01*
X25544420Y-14296928D01*
X25561753Y-14279595D01*
X25584519Y-14256830D01*
X25640106Y-14224736D01*
X25704294Y-14224736D01*
X25759881Y-14256830D01*
X25799978Y-14296927D01*
X25799980Y-14296928D01*
X25920074Y-14358119D01*
X26053200Y-14379204D01*
X26186326Y-14358119D01*
X26306420Y-14296928D01*
X26371920Y-14231427D01*
X26427506Y-14199335D01*
X26491694Y-14199335D01*
X26547279Y-14231427D01*
X26599343Y-14283491D01*
X26719437Y-14344682D01*
X26852563Y-14365767D01*
X26985689Y-14344682D01*
X27105783Y-14283491D01*
X27201091Y-14188183D01*
X27262282Y-14068089D01*
X27283367Y-13934963D01*
X27262282Y-13801837D01*
X27201091Y-13681743D01*
X27201090Y-13681741D01*
X27105784Y-13586435D01*
X26985687Y-13525243D01*
X26852563Y-13504158D01*
X26719438Y-13525243D01*
X26599341Y-13586435D01*
X26533844Y-13651933D01*
X26478257Y-13684027D01*
X26414069Y-13684027D01*
X26358482Y-13651933D01*
X26306421Y-13599872D01*
X26186324Y-13538680D01*
X26053200Y-13517595D01*
X25920075Y-13538680D01*
X25799977Y-13599873D01*
X25759879Y-13639971D01*
X25704291Y-13672064D01*
X25640104Y-13672064D01*
X25584517Y-13639969D01*
X25544421Y-13599872D01*
X25424324Y-13538680D01*
X25291200Y-13517595D01*
X25158075Y-13538680D01*
X25037978Y-13599872D01*
X24972481Y-13665370D01*
X24916894Y-13697464D01*
X24852706Y-13697464D01*
X24797119Y-13665370D01*
X24731621Y-13599872D01*
X24611524Y-13538680D01*
X24478400Y-13517595D01*
X24345275Y-13538680D01*
X24225177Y-13599873D01*
X24185079Y-13639971D01*
X24129491Y-13672064D01*
X24065304Y-13672064D01*
X24009717Y-13639969D01*
X23969621Y-13599872D01*
X23849524Y-13538680D01*
X23716400Y-13517595D01*
X23583275Y-13538680D01*
X23463178Y-13599872D01*
X23397681Y-13665370D01*
X23342094Y-13697464D01*
X23277906Y-13697464D01*
X23222319Y-13665370D01*
X23156821Y-13599872D01*
X23036724Y-13538680D01*
X22903600Y-13517595D01*
X22770475Y-13538680D01*
X22650378Y-13599872D01*
X22555072Y-13695178D01*
X22493880Y-13815275D01*
X22472795Y-13948399D01*
X22493880Y-14081524D01*
X22555345Y-14202156D01*
X22585180Y-14250841D01*
X22589723Y-14308556D01*
X22567568Y-14362044D01*
X22523546Y-14399643D01*
X22497981Y-14412669D01*
X22431368Y-14479283D01*
X22388125Y-14507366D01*
X22337197Y-14515432D01*
X22287392Y-14502087D01*
X22249531Y-14482796D01*
X22179231Y-14446976D01*
X22179230Y-14446975D01*
X22179229Y-14446975D01*
X22046105Y-14425890D01*
X21912980Y-14446975D01*
X21792883Y-14508167D01*
X21743816Y-14557235D01*
X21688229Y-14589329D01*
X21624041Y-14589329D01*
X21568454Y-14557235D01*
X21553756Y-14542537D01*
X21433659Y-14481345D01*
X21300535Y-14460260D01*
X21167410Y-14481345D01*
X21047313Y-14542537D01*
X20952007Y-14637843D01*
X20890815Y-14757940D01*
X20869730Y-14891064D01*
X20444297Y-14891064D01*
X20468519Y-14843526D01*
X20489604Y-14710400D01*
X20468519Y-14577274D01*
X20407328Y-14457180D01*
X20407327Y-14457178D01*
X20312021Y-14361872D01*
X20191924Y-14300680D01*
X20058800Y-14279595D01*
X19925675Y-14300680D01*
X19805578Y-14361872D01*
X19710272Y-14457178D01*
X19649080Y-14577275D01*
X19647491Y-14587309D01*
X19619307Y-14648441D01*
X19563334Y-14685839D01*
X19496070Y-14688481D01*
X19437337Y-14655588D01*
X19397621Y-14615872D01*
X19277524Y-14554680D01*
X19144400Y-14533595D01*
X19011275Y-14554680D01*
X18891178Y-14615872D01*
X18795872Y-14711178D01*
X18734680Y-14831275D01*
X18713595Y-14964400D01*
X18449558Y-14964400D01*
X18457604Y-14913600D01*
X18436519Y-14780474D01*
X18375328Y-14660380D01*
X18375327Y-14660378D01*
X18280021Y-14565072D01*
X18159924Y-14503880D01*
X18026800Y-14482795D01*
X17893675Y-14503880D01*
X17773578Y-14565072D01*
X17678272Y-14660378D01*
X17617080Y-14780475D01*
X17595995Y-14913600D01*
X-42000Y-14913600D01*
X-42000Y-9285999D01*
X2226725Y-9285999D01*
X2245808Y-9637950D01*
X2245808Y-9637955D01*
X2245809Y-9637957D01*
X2271263Y-9793220D01*
X2302833Y-9985795D01*
X2397127Y-10325413D01*
X2527592Y-10652855D01*
X2692695Y-10964271D01*
X2890496Y-11256004D01*
X2890499Y-11256008D01*
X3043385Y-11435999D01*
X3118686Y-11524650D01*
X3374578Y-11767045D01*
X3504369Y-11865709D01*
X3655182Y-11980354D01*
X3957202Y-12162074D01*
X4277099Y-12310074D01*
X4526252Y-12394023D01*
X4611121Y-12422619D01*
X4686892Y-12439297D01*
X4955355Y-12498391D01*
X5267652Y-12532355D01*
X5305762Y-12536500D01*
X5305763Y-12536500D01*
X5658237Y-12536500D01*
X5658238Y-12536500D01*
X5692608Y-12532761D01*
X6008645Y-12498391D01*
X6352878Y-12422619D01*
X6686901Y-12310074D01*
X7006798Y-12162074D01*
X7308818Y-11980354D01*
X7589420Y-11767046D01*
X7845314Y-11524650D01*
X7920614Y-11436000D01*
X12634300Y-11436000D01*
X12655008Y-11593284D01*
X12715716Y-11739848D01*
X12812291Y-11865708D01*
X12938151Y-11962283D01*
X13084716Y-12022992D01*
X13202510Y-12038500D01*
X13281490Y-12038500D01*
X13399284Y-12022992D01*
X13545849Y-11962283D01*
X13671708Y-11865708D01*
X13768283Y-11739850D01*
X13828992Y-11593284D01*
X13849699Y-11436000D01*
X31114300Y-11436000D01*
X31135008Y-11593284D01*
X31195716Y-11739848D01*
X31292291Y-11865708D01*
X31418151Y-11962283D01*
X31564716Y-12022992D01*
X31682510Y-12038500D01*
X31761490Y-12038500D01*
X31879284Y-12022992D01*
X32025849Y-11962283D01*
X32151708Y-11865708D01*
X32248283Y-11739850D01*
X32308992Y-11593284D01*
X32329699Y-11436000D01*
X32308992Y-11278716D01*
X32248283Y-11132151D01*
X32248282Y-11132150D01*
X32151708Y-11006291D01*
X32025848Y-10909716D01*
X31879284Y-10849008D01*
X31761490Y-10833500D01*
X31682510Y-10833500D01*
X31564715Y-10849008D01*
X31418151Y-10909716D01*
X31292293Y-11006290D01*
X31195715Y-11132152D01*
X31135008Y-11278715D01*
X31114300Y-11436000D01*
X13849699Y-11436000D01*
X13828992Y-11278716D01*
X13768283Y-11132151D01*
X13768282Y-11132150D01*
X13671708Y-11006291D01*
X13545848Y-10909716D01*
X13399284Y-10849008D01*
X13281490Y-10833500D01*
X13202510Y-10833500D01*
X13084715Y-10849008D01*
X12938151Y-10909716D01*
X12812293Y-11006290D01*
X12715715Y-11132152D01*
X12655008Y-11278715D01*
X12634300Y-11436000D01*
X7920614Y-11436000D01*
X8073501Y-11256008D01*
X8242813Y-11006292D01*
X8271304Y-10964271D01*
X8436407Y-10652855D01*
X8566872Y-10325413D01*
X8661166Y-9985795D01*
X8661165Y-9985795D01*
X8661168Y-9985788D01*
X8718191Y-9637957D01*
X8723502Y-9540000D01*
X10639195Y-9540000D01*
X10660280Y-9673124D01*
X10721472Y-9793221D01*
X10816778Y-9888527D01*
X10816780Y-9888528D01*
X10936874Y-9949719D01*
X11070000Y-9970804D01*
X11203126Y-9949719D01*
X11323220Y-9888528D01*
X11418528Y-9793220D01*
X11479719Y-9673126D01*
X11500804Y-9540000D01*
X11479719Y-9406874D01*
X11418528Y-9286780D01*
X11418527Y-9286778D01*
X11380164Y-9248415D01*
X15652695Y-9248415D01*
X15673780Y-9381539D01*
X15734972Y-9501636D01*
X15830278Y-9596942D01*
X15830280Y-9596943D01*
X15950374Y-9658134D01*
X16083500Y-9679219D01*
X16216626Y-9658134D01*
X16336720Y-9596943D01*
X16432028Y-9501635D01*
X16493219Y-9381541D01*
X16508351Y-9285999D01*
X36226725Y-9285999D01*
X36245808Y-9637950D01*
X36245808Y-9637955D01*
X36245809Y-9637957D01*
X36271263Y-9793220D01*
X36302833Y-9985795D01*
X36397127Y-10325413D01*
X36527592Y-10652855D01*
X36692695Y-10964271D01*
X36890496Y-11256004D01*
X36890499Y-11256008D01*
X37043385Y-11435999D01*
X37118686Y-11524650D01*
X37374578Y-11767045D01*
X37504369Y-11865709D01*
X37655182Y-11980354D01*
X37957202Y-12162074D01*
X38277099Y-12310074D01*
X38526252Y-12394023D01*
X38611121Y-12422619D01*
X38686892Y-12439297D01*
X38955355Y-12498391D01*
X39267652Y-12532355D01*
X39305762Y-12536500D01*
X39305763Y-12536500D01*
X39658237Y-12536500D01*
X39658238Y-12536500D01*
X39692608Y-12532761D01*
X40008645Y-12498391D01*
X40352878Y-12422619D01*
X40686901Y-12310074D01*
X41006798Y-12162074D01*
X41308818Y-11980354D01*
X41589420Y-11767046D01*
X41845314Y-11524650D01*
X42073501Y-11256008D01*
X42242813Y-11006292D01*
X42271304Y-10964271D01*
X42436407Y-10652855D01*
X42566872Y-10325413D01*
X42661166Y-9985795D01*
X42661165Y-9985795D01*
X42661168Y-9985788D01*
X42718191Y-9637957D01*
X42737274Y-9286000D01*
X42718191Y-8934043D01*
X42661168Y-8586212D01*
X42661166Y-8586204D01*
X42566872Y-8246586D01*
X42436407Y-7919144D01*
X42271304Y-7607728D01*
X42073503Y-7315995D01*
X42073501Y-7315992D01*
X41845314Y-7047350D01*
X41838720Y-7041104D01*
X41589421Y-6804954D01*
X41308817Y-6591645D01*
X41006795Y-6409924D01*
X40686903Y-6261927D01*
X40686901Y-6261926D01*
X40604758Y-6234249D01*
X40352878Y-6149380D01*
X40008645Y-6073609D01*
X39658238Y-6035500D01*
X39658237Y-6035500D01*
X39305763Y-6035500D01*
X39305762Y-6035500D01*
X38955354Y-6073609D01*
X38611121Y-6149380D01*
X38277096Y-6261927D01*
X37957204Y-6409924D01*
X37655182Y-6591645D01*
X37374578Y-6804954D01*
X37118686Y-7047349D01*
X36890496Y-7315995D01*
X36692695Y-7607728D01*
X36527592Y-7919144D01*
X36397127Y-8246586D01*
X36302833Y-8586204D01*
X36245808Y-8934049D01*
X36226725Y-9285999D01*
X16508351Y-9285999D01*
X16514304Y-9248415D01*
X16493219Y-9115289D01*
X16432028Y-8995195D01*
X16432027Y-8995193D01*
X16411572Y-8974738D01*
X16379478Y-8919150D01*
X16379478Y-8854963D01*
X16411573Y-8799375D01*
X16444927Y-8766021D01*
X16444928Y-8766020D01*
X16506119Y-8645926D01*
X16527204Y-8512800D01*
X16506119Y-8379674D01*
X16444928Y-8259580D01*
X16444927Y-8259578D01*
X16444148Y-8258799D01*
X17443595Y-8258799D01*
X17464680Y-8391924D01*
X17525872Y-8512021D01*
X17621178Y-8607327D01*
X17621180Y-8607328D01*
X17741274Y-8668519D01*
X17874400Y-8689604D01*
X18007526Y-8668519D01*
X18127620Y-8607328D01*
X18222928Y-8512020D01*
X18246723Y-8465319D01*
X18271915Y-8415878D01*
X18317610Y-8366445D01*
X18382400Y-8348172D01*
X18447190Y-8366445D01*
X18492885Y-8415878D01*
X18541871Y-8512020D01*
X18637178Y-8607327D01*
X18637180Y-8607328D01*
X18757274Y-8668519D01*
X18890400Y-8689604D01*
X19023526Y-8668519D01*
X19143620Y-8607328D01*
X19238928Y-8512020D01*
X19300119Y-8391926D01*
X19313158Y-8309599D01*
X20085195Y-8309599D01*
X20106280Y-8442724D01*
X20167472Y-8562821D01*
X20262778Y-8658127D01*
X20262780Y-8658128D01*
X20382874Y-8719319D01*
X20516000Y-8740404D01*
X20649126Y-8719319D01*
X20769220Y-8658128D01*
X20864528Y-8562820D01*
X20890014Y-8512800D01*
X29235695Y-8512800D01*
X29256780Y-8645924D01*
X29317972Y-8766021D01*
X29413278Y-8861327D01*
X29413280Y-8861328D01*
X29533374Y-8922519D01*
X29666500Y-8943604D01*
X29799626Y-8922519D01*
X29919720Y-8861328D01*
X30015028Y-8766020D01*
X30076219Y-8645926D01*
X30097304Y-8512800D01*
X30076219Y-8379674D01*
X30076218Y-8379672D01*
X30075108Y-8372663D01*
X30081817Y-8308827D01*
X30119545Y-8256898D01*
X30178184Y-8230791D01*
X30301126Y-8211319D01*
X30421220Y-8150128D01*
X30516528Y-8054820D01*
X30577719Y-7934726D01*
X30598804Y-7801600D01*
X30577719Y-7668474D01*
X30516528Y-7548380D01*
X30516527Y-7548378D01*
X30421221Y-7453072D01*
X30301124Y-7391880D01*
X30168000Y-7370795D01*
X30034875Y-7391880D01*
X29914778Y-7453072D01*
X29819472Y-7548378D01*
X29758280Y-7668475D01*
X29737195Y-7801600D01*
X29759391Y-7941737D01*
X29752682Y-8005572D01*
X29714954Y-8057501D01*
X29656316Y-8083608D01*
X29533375Y-8103080D01*
X29413278Y-8164272D01*
X29317972Y-8259578D01*
X29256780Y-8379675D01*
X29235695Y-8512800D01*
X20890014Y-8512800D01*
X20915924Y-8461948D01*
X20958873Y-8414248D01*
X21019919Y-8394413D01*
X21082704Y-8407758D01*
X21095973Y-8414519D01*
X21195674Y-8465319D01*
X21328800Y-8486404D01*
X21461926Y-8465319D01*
X21582020Y-8404128D01*
X21594224Y-8391924D01*
X21622119Y-8364030D01*
X21677706Y-8331936D01*
X21741894Y-8331936D01*
X21797481Y-8364030D01*
X21837578Y-8404127D01*
X21837580Y-8404128D01*
X21957674Y-8465319D01*
X22090800Y-8486404D01*
X22223926Y-8465319D01*
X22344020Y-8404128D01*
X22375485Y-8372663D01*
X22409519Y-8338630D01*
X22465106Y-8306536D01*
X22529294Y-8306536D01*
X22584881Y-8338630D01*
X22650378Y-8404127D01*
X22650380Y-8404128D01*
X22770474Y-8465319D01*
X22903600Y-8486404D01*
X23036726Y-8465319D01*
X23156820Y-8404128D01*
X23169024Y-8391924D01*
X23196919Y-8364030D01*
X23252506Y-8331936D01*
X23316694Y-8331936D01*
X23372281Y-8364030D01*
X23412378Y-8404127D01*
X23412380Y-8404128D01*
X23532474Y-8465319D01*
X23665600Y-8486404D01*
X23798726Y-8465319D01*
X23918820Y-8404128D01*
X23950285Y-8372663D01*
X23984319Y-8338630D01*
X24039906Y-8306536D01*
X24104094Y-8306536D01*
X24159681Y-8338630D01*
X24225178Y-8404127D01*
X24225180Y-8404128D01*
X24345274Y-8465319D01*
X24478400Y-8486404D01*
X24611526Y-8465319D01*
X24731620Y-8404128D01*
X24763085Y-8372663D01*
X24797119Y-8338630D01*
X24852706Y-8306536D01*
X24916894Y-8306536D01*
X24972481Y-8338630D01*
X25037978Y-8404127D01*
X25037980Y-8404128D01*
X25158074Y-8465319D01*
X25291200Y-8486404D01*
X25424326Y-8465319D01*
X25544420Y-8404128D01*
X25635320Y-8313227D01*
X25690906Y-8281135D01*
X25755094Y-8281135D01*
X25810682Y-8313230D01*
X25850778Y-8353327D01*
X25850780Y-8353328D01*
X25970874Y-8414519D01*
X26104000Y-8435604D01*
X26237126Y-8414519D01*
X26357220Y-8353328D01*
X26371918Y-8338630D01*
X26397319Y-8313230D01*
X26452906Y-8281136D01*
X26517094Y-8281136D01*
X26572681Y-8313230D01*
X26612778Y-8353327D01*
X26612780Y-8353328D01*
X26732874Y-8414519D01*
X26866000Y-8435604D01*
X26999126Y-8414519D01*
X27119220Y-8353328D01*
X27214528Y-8258020D01*
X27275719Y-8137926D01*
X27296804Y-8004800D01*
X27275719Y-7871674D01*
X27214528Y-7751580D01*
X27214527Y-7751578D01*
X27119221Y-7656272D01*
X26999124Y-7595080D01*
X26866000Y-7573995D01*
X26732875Y-7595080D01*
X26612777Y-7656273D01*
X26572679Y-7696371D01*
X26517091Y-7728464D01*
X26452904Y-7728464D01*
X26397317Y-7696369D01*
X26357221Y-7656272D01*
X26237124Y-7595080D01*
X26104000Y-7573995D01*
X25970875Y-7595080D01*
X25850778Y-7656272D01*
X25759881Y-7747170D01*
X25704294Y-7779264D01*
X25640106Y-7779264D01*
X25584519Y-7747170D01*
X25544421Y-7707072D01*
X25424324Y-7645880D01*
X25291200Y-7624795D01*
X25158075Y-7645880D01*
X25037978Y-7707072D01*
X24972481Y-7772570D01*
X24916894Y-7804664D01*
X24852706Y-7804664D01*
X24797119Y-7772570D01*
X24731621Y-7707072D01*
X24611524Y-7645880D01*
X24478400Y-7624795D01*
X24345275Y-7645880D01*
X24225178Y-7707072D01*
X24159681Y-7772570D01*
X24104094Y-7804664D01*
X24039906Y-7804664D01*
X23984319Y-7772570D01*
X23918821Y-7707072D01*
X23798724Y-7645880D01*
X23665600Y-7624795D01*
X23532475Y-7645880D01*
X23412377Y-7707073D01*
X23372279Y-7747171D01*
X23316691Y-7779264D01*
X23252504Y-7779264D01*
X23196917Y-7747169D01*
X23156821Y-7707072D01*
X23036724Y-7645880D01*
X22903600Y-7624795D01*
X22770475Y-7645880D01*
X22650378Y-7707072D01*
X22584881Y-7772570D01*
X22529294Y-7804664D01*
X22465106Y-7804664D01*
X22409519Y-7772570D01*
X22344021Y-7707072D01*
X22223924Y-7645880D01*
X22090800Y-7624795D01*
X21957675Y-7645880D01*
X21837577Y-7707073D01*
X21797479Y-7747171D01*
X21741891Y-7779264D01*
X21677704Y-7779264D01*
X21622117Y-7747169D01*
X21582021Y-7707072D01*
X21461924Y-7645880D01*
X21328800Y-7624795D01*
X21195675Y-7645880D01*
X21075578Y-7707072D01*
X20980272Y-7802378D01*
X20928875Y-7903251D01*
X20885925Y-7950951D01*
X20824880Y-7970786D01*
X20762096Y-7957441D01*
X20649126Y-7899880D01*
X20516000Y-7878795D01*
X20382875Y-7899880D01*
X20262778Y-7961072D01*
X20167472Y-8056378D01*
X20106280Y-8176475D01*
X20085195Y-8309599D01*
X19313158Y-8309599D01*
X19321204Y-8258800D01*
X19321080Y-8258020D01*
X19303992Y-8150127D01*
X19300119Y-8125674D01*
X19238928Y-8005580D01*
X19238927Y-8005578D01*
X19143621Y-7910272D01*
X19023524Y-7849080D01*
X18890400Y-7827995D01*
X18757275Y-7849080D01*
X18637178Y-7910272D01*
X18541872Y-8005578D01*
X18492885Y-8101722D01*
X18447190Y-8151154D01*
X18382400Y-8169427D01*
X18317610Y-8151154D01*
X18271915Y-8101722D01*
X18222927Y-8005578D01*
X18127621Y-7910272D01*
X18007524Y-7849080D01*
X17874400Y-7827995D01*
X17741275Y-7849080D01*
X17621178Y-7910272D01*
X17525872Y-8005578D01*
X17464680Y-8125675D01*
X17443595Y-8258799D01*
X16444148Y-8258799D01*
X16349621Y-8164272D01*
X16229524Y-8103080D01*
X16096400Y-8081995D01*
X15963275Y-8103080D01*
X15843178Y-8164272D01*
X15747872Y-8259578D01*
X15686680Y-8379675D01*
X15665595Y-8512800D01*
X15686680Y-8645924D01*
X15747872Y-8766021D01*
X15768327Y-8786476D01*
X15800421Y-8842063D01*
X15800421Y-8906250D01*
X15768328Y-8961837D01*
X15734973Y-8995192D01*
X15673780Y-9115290D01*
X15652695Y-9248415D01*
X11380164Y-9248415D01*
X11323221Y-9191472D01*
X11203124Y-9130280D01*
X11070000Y-9109195D01*
X10936875Y-9130280D01*
X10816778Y-9191472D01*
X10721472Y-9286778D01*
X10660280Y-9406875D01*
X10639195Y-9540000D01*
X8723502Y-9540000D01*
X8737274Y-9286000D01*
X8718191Y-8934043D01*
X8661168Y-8586212D01*
X8661166Y-8586204D01*
X8584367Y-8309599D01*
X14141595Y-8309599D01*
X14162680Y-8442724D01*
X14223872Y-8562821D01*
X14319178Y-8658127D01*
X14319180Y-8658128D01*
X14439274Y-8719319D01*
X14572400Y-8740404D01*
X14705526Y-8719319D01*
X14825620Y-8658128D01*
X14920928Y-8562820D01*
X14982119Y-8442726D01*
X15003204Y-8309600D01*
X15003080Y-8308820D01*
X14984941Y-8194290D01*
X14982119Y-8176474D01*
X14920928Y-8056380D01*
X14920927Y-8056378D01*
X14825621Y-7961072D01*
X14705524Y-7899880D01*
X14572400Y-7878795D01*
X14439275Y-7899880D01*
X14319178Y-7961072D01*
X14223872Y-8056378D01*
X14162680Y-8176475D01*
X14141595Y-8309599D01*
X8584367Y-8309599D01*
X8566872Y-8246586D01*
X8436407Y-7919144D01*
X8271304Y-7607728D01*
X8241451Y-7563699D01*
X15011195Y-7563699D01*
X15032280Y-7696824D01*
X15093472Y-7816921D01*
X15188778Y-7912227D01*
X15188780Y-7912228D01*
X15308874Y-7973419D01*
X15442000Y-7994504D01*
X15575126Y-7973419D01*
X15695220Y-7912228D01*
X15790528Y-7816920D01*
X15851719Y-7696826D01*
X15872804Y-7563700D01*
X15851719Y-7430574D01*
X15790528Y-7310480D01*
X15790527Y-7310478D01*
X15695221Y-7215172D01*
X15575124Y-7153980D01*
X15442000Y-7132895D01*
X15308875Y-7153980D01*
X15188778Y-7215172D01*
X15093472Y-7310478D01*
X15032280Y-7430575D01*
X15011195Y-7563699D01*
X8241451Y-7563699D01*
X8073503Y-7315995D01*
X8073501Y-7315992D01*
X7875680Y-7083099D01*
X11300195Y-7083099D01*
X11321280Y-7216224D01*
X11382472Y-7336321D01*
X11477778Y-7431627D01*
X11477780Y-7431628D01*
X11597874Y-7492819D01*
X11731000Y-7513904D01*
X11864126Y-7492819D01*
X11984220Y-7431628D01*
X12079528Y-7336320D01*
X12140719Y-7216226D01*
X12151877Y-7145771D01*
X12170356Y-7097633D01*
X12206816Y-7061173D01*
X12254954Y-7042695D01*
X12264999Y-7041103D01*
X12265000Y-7041104D01*
X12398126Y-7020019D01*
X12518220Y-6958828D01*
X12613528Y-6863520D01*
X12674719Y-6743426D01*
X12695804Y-6610300D01*
X12674719Y-6477174D01*
X12613528Y-6357080D01*
X12613527Y-6357078D01*
X12518221Y-6261772D01*
X12398124Y-6200580D01*
X12265000Y-6179495D01*
X12131875Y-6200580D01*
X12011778Y-6261772D01*
X11916472Y-6357078D01*
X11855280Y-6477175D01*
X11844121Y-6547630D01*
X11825643Y-6595767D01*
X11789183Y-6632226D01*
X11741046Y-6650704D01*
X11597875Y-6673380D01*
X11477778Y-6734572D01*
X11382472Y-6829878D01*
X11321280Y-6949975D01*
X11300195Y-7083099D01*
X7875680Y-7083099D01*
X7845314Y-7047350D01*
X7838720Y-7041104D01*
X7589421Y-6804954D01*
X7308817Y-6591645D01*
X7006795Y-6409924D01*
X6686903Y-6261927D01*
X6686901Y-6261926D01*
X6604758Y-6234249D01*
X6352878Y-6149380D01*
X6008645Y-6073609D01*
X5658238Y-6035500D01*
X5658237Y-6035500D01*
X5305763Y-6035500D01*
X5305762Y-6035500D01*
X4955354Y-6073609D01*
X4611121Y-6149380D01*
X4277096Y-6261927D01*
X3957204Y-6409924D01*
X3655182Y-6591645D01*
X3374578Y-6804954D01*
X3118686Y-7047349D01*
X2890496Y-7315995D01*
X2692695Y-7607728D01*
X2527592Y-7919144D01*
X2397127Y-8246586D01*
X2302833Y-8586204D01*
X2245808Y-8934049D01*
X2226725Y-9285999D01*
X-42000Y-9285999D01*
X-42000Y-3088746D01*
X1553243Y-3088746D01*
X1563083Y-3245148D01*
X1570247Y-3267195D01*
X1611511Y-3394193D01*
X1695483Y-3526511D01*
X1809723Y-3633789D01*
X1927940Y-3698780D01*
X1947054Y-3709288D01*
X2098841Y-3748260D01*
X2098843Y-3748260D01*
X2216226Y-3748260D01*
X2216228Y-3748260D01*
X2293860Y-3738452D01*
X2332678Y-3733549D01*
X2422467Y-3697999D01*
X3908195Y-3697999D01*
X3929280Y-3831124D01*
X3990472Y-3951221D01*
X4085778Y-4046527D01*
X4085780Y-4046528D01*
X4205874Y-4107719D01*
X4339000Y-4128804D01*
X4472126Y-4107719D01*
X4592220Y-4046528D01*
X4686749Y-3951999D01*
X15719195Y-3951999D01*
X15740280Y-4085124D01*
X15801472Y-4205221D01*
X15896778Y-4300527D01*
X15896780Y-4300528D01*
X16016874Y-4361719D01*
X16150000Y-4382804D01*
X16283126Y-4361719D01*
X16403220Y-4300528D01*
X16498528Y-4205220D01*
X16559719Y-4085126D01*
X16580804Y-3952000D01*
X16580680Y-3951220D01*
X16570261Y-3885437D01*
X16559719Y-3818874D01*
X16498528Y-3698780D01*
X16498527Y-3698778D01*
X16403221Y-3603472D01*
X16283124Y-3542280D01*
X16150000Y-3521195D01*
X16016875Y-3542280D01*
X15896778Y-3603472D01*
X15801472Y-3698778D01*
X15740280Y-3818875D01*
X15719195Y-3951999D01*
X4686749Y-3951999D01*
X4687528Y-3951220D01*
X4748719Y-3831126D01*
X4769804Y-3698000D01*
X4748719Y-3564874D01*
X4687528Y-3444780D01*
X4687527Y-3444778D01*
X4592221Y-3349472D01*
X4472124Y-3288280D01*
X4338999Y-3267195D01*
X4205875Y-3288280D01*
X4085778Y-3349472D01*
X3990472Y-3444778D01*
X3929280Y-3564875D01*
X3908195Y-3697999D01*
X2422467Y-3697999D01*
X2478388Y-3675858D01*
X2478388Y-3675857D01*
X2605172Y-3583745D01*
X2705064Y-3462995D01*
X2705063Y-3462995D01*
X2705065Y-3462994D01*
X2771791Y-3321194D01*
X2801156Y-3167256D01*
X2794211Y-3056874D01*
X2791316Y-3010851D01*
X2767248Y-2936777D01*
X2742889Y-2861807D01*
X2658917Y-2729489D01*
X2544677Y-2622211D01*
X2447300Y-2568677D01*
X2407345Y-2546711D01*
X2255559Y-2507740D01*
X2255557Y-2507740D01*
X2138174Y-2507740D01*
X2138172Y-2507740D01*
X2021722Y-2522450D01*
X1876011Y-2580141D01*
X1749227Y-2672254D01*
X1649335Y-2793004D01*
X1582609Y-2934804D01*
X1553243Y-3088746D01*
X-42000Y-3088746D01*
X-42000Y-2072667D01*
X6631965Y-2072667D01*
X6641826Y-2229387D01*
X6641827Y-2229389D01*
X6690353Y-2378738D01*
X6774497Y-2511327D01*
X6888970Y-2618825D01*
X6986161Y-2672256D01*
X7026583Y-2694478D01*
X7038169Y-2697453D01*
X7094321Y-2729190D01*
X7126936Y-2784837D01*
X7127190Y-2849336D01*
X7095013Y-2905237D01*
X7063473Y-2936777D01*
X7002280Y-3056875D01*
X6981195Y-3190000D01*
X7002280Y-3323124D01*
X7063472Y-3443221D01*
X7158778Y-3538527D01*
X7158780Y-3538528D01*
X7278874Y-3599719D01*
X7302570Y-3603472D01*
X7411999Y-3620804D01*
X7411999Y-3620803D01*
X7412000Y-3620804D01*
X7545126Y-3599719D01*
X7665220Y-3538528D01*
X7760528Y-3443220D01*
X7821719Y-3323126D01*
X7842804Y-3190000D01*
X28927195Y-3190000D01*
X28948280Y-3323124D01*
X29009472Y-3443221D01*
X29104778Y-3538527D01*
X29104780Y-3538528D01*
X29224874Y-3599719D01*
X29248570Y-3603472D01*
X29357999Y-3620804D01*
X29357999Y-3620803D01*
X29358000Y-3620804D01*
X29491126Y-3599719D01*
X29611220Y-3538528D01*
X29706528Y-3443220D01*
X29767719Y-3323126D01*
X29788804Y-3190000D01*
X29767719Y-3056874D01*
X29706528Y-2936780D01*
X29706527Y-2936778D01*
X29611221Y-2841472D01*
X29491124Y-2780280D01*
X29358000Y-2759195D01*
X29224875Y-2780280D01*
X29104778Y-2841472D01*
X29009472Y-2936778D01*
X28948280Y-3056875D01*
X28927195Y-3190000D01*
X7842804Y-3190000D01*
X7821719Y-3056874D01*
X7760528Y-2936780D01*
X7760527Y-2936778D01*
X7665221Y-2841472D01*
X7637061Y-2827124D01*
X7590254Y-2785529D01*
X7569738Y-2726367D01*
X7580746Y-2664725D01*
X7620467Y-2616323D01*
X7686048Y-2568677D01*
X7786146Y-2447679D01*
X7853008Y-2305590D01*
X7882434Y-2151336D01*
X7872573Y-1994611D01*
X7824047Y-1845262D01*
X7739903Y-1712673D01*
X7625430Y-1605175D01*
X7548750Y-1563020D01*
X7487816Y-1529521D01*
X7335720Y-1490470D01*
X7335718Y-1490470D01*
X7218096Y-1490470D01*
X7218093Y-1490470D01*
X7101401Y-1505211D01*
X6955398Y-1563018D01*
X6828352Y-1655323D01*
X6728253Y-1776322D01*
X6695813Y-1845262D01*
X6661392Y-1918410D01*
X6643996Y-2009601D01*
X6631965Y-2072667D01*
X-42000Y-2072667D01*
X-42000Y-1056746D01*
X1553243Y-1056746D01*
X1563083Y-1213148D01*
X1587792Y-1289194D01*
X1611511Y-1362193D01*
X1695483Y-1494511D01*
X1809723Y-1601789D01*
X1907100Y-1655323D01*
X1947054Y-1677288D01*
X2098841Y-1716260D01*
X2098843Y-1716260D01*
X2216226Y-1716260D01*
X2216228Y-1716260D01*
X2293860Y-1706452D01*
X2332678Y-1701549D01*
X2478388Y-1643858D01*
X2531631Y-1605175D01*
X2605172Y-1551745D01*
X2705064Y-1430995D01*
X2705063Y-1430995D01*
X2705065Y-1430994D01*
X2771791Y-1289194D01*
X2801156Y-1135256D01*
X2791316Y-978851D01*
X2742889Y-829807D01*
X2658917Y-697489D01*
X2608346Y-650000D01*
X3019195Y-650000D01*
X3040280Y-783124D01*
X3101472Y-903221D01*
X3196778Y-998527D01*
X3196780Y-998528D01*
X3316874Y-1059719D01*
X3450000Y-1080804D01*
X3583126Y-1059719D01*
X3703220Y-998528D01*
X3798528Y-903220D01*
X3859719Y-783126D01*
X3880804Y-650000D01*
X5305195Y-650000D01*
X5326280Y-783124D01*
X5387472Y-903221D01*
X5482778Y-998527D01*
X5482780Y-998528D01*
X5602874Y-1059719D01*
X5736000Y-1080804D01*
X5869126Y-1059719D01*
X5989220Y-998528D01*
X6084528Y-903220D01*
X6145719Y-783126D01*
X6166804Y-650000D01*
X6145719Y-516874D01*
X6084528Y-396780D01*
X6084527Y-396778D01*
X5989221Y-301472D01*
X5869124Y-240280D01*
X5736000Y-219195D01*
X5602875Y-240280D01*
X5482778Y-301472D01*
X5387472Y-396778D01*
X5326280Y-516875D01*
X5305195Y-650000D01*
X3880804Y-650000D01*
X3859719Y-516874D01*
X3798528Y-396780D01*
X3798527Y-396778D01*
X3703221Y-301472D01*
X3583124Y-240280D01*
X3450000Y-219195D01*
X3316875Y-240280D01*
X3196778Y-301472D01*
X3101472Y-396778D01*
X3040280Y-516875D01*
X3019195Y-650000D01*
X2608346Y-650000D01*
X2544677Y-590211D01*
X2411279Y-516874D01*
X2407345Y-514711D01*
X2255559Y-475740D01*
X2255557Y-475740D01*
X2138174Y-475740D01*
X2138172Y-475740D01*
X2021722Y-490450D01*
X1876011Y-548141D01*
X1749227Y-640254D01*
X1649335Y-761004D01*
X1582609Y-902804D01*
X1553243Y-1056746D01*
X-42000Y-1056746D01*
X-42000Y-142000D01*
X9115195Y-142000D01*
X9136280Y-275124D01*
X9197472Y-395221D01*
X9292778Y-490527D01*
X9292780Y-490528D01*
X9412874Y-551719D01*
X9479436Y-562261D01*
X9545999Y-572804D01*
X9545999Y-572803D01*
X9546000Y-572804D01*
X9679126Y-551719D01*
X9799220Y-490528D01*
X9894528Y-395220D01*
X9955719Y-275126D01*
X9976804Y-142000D01*
X9955719Y-8874D01*
X9894528Y111220D01*
X9894527Y111222D01*
X9799221Y206528D01*
X9679124Y267720D01*
X9546000Y288805D01*
X9412875Y267720D01*
X9292778Y206528D01*
X9197472Y111222D01*
X9136280Y-8875D01*
X9115195Y-142000D01*
X-42000Y-142000D01*
X-42000Y749500D01*
X-25387Y811500D01*
X20000Y856887D01*
X82000Y873500D01*
X44156000Y873500D01*
X44218000Y856887D01*
G37*
%TD.AperFunction*%
M02*
